<?xml version="1.0" encoding="UTF-8" standalone="no"?>
<!-- Created with Inkscape (http://www.inkscape.org/) -->

<svg
   xmlns:dc="http://purl.org/dc/elements/1.1/"
   xmlns:cc="http://creativecommons.org/ns#"
   xmlns:rdf="http://www.w3.org/1999/02/22-rdf-syntax-ns#"
   xmlns:svg="http://www.w3.org/2000/svg"
   xmlns="http://www.w3.org/2000/svg"
   xmlns:sodipodi="http://sodipodi.sourceforge.net/DTD/sodipodi-0.dtd"
   xmlns:inkscape="http://www.inkscape.org/namespaces/inkscape"
   width="744.09448"
   height="735"
   viewBox="0 0 744.09449 734.99997"
   id="svg4232"
   version="1.1"
   inkscape:version="0.91 r13725"
   sodipodi:docname="logo.svg">
  <defs
     id="defs4234" />
  <sodipodi:namedview
     id="base"
     pagecolor="#ffffff"
     bordercolor="#666666"
     borderopacity="1.0"
     inkscape:pageopacity="0.0"
     inkscape:pageshadow="2"
     inkscape:zoom="0.35"
     inkscape:cx="66.873107"
     inkscape:cy="520"
     inkscape:document-units="px"
     inkscape:current-layer="layer1"
     showgrid="false"
     units="px"
     inkscape:window-width="1366"
     inkscape:window-height="719"
     inkscape:window-x="0"
     inkscape:window-y="25"
     inkscape:window-maximized="1" />
  <metadata
     id="metadata4237">
    <rdf:RDF>
      <cc:Work
         rdf:about="">
        <dc:format>image/svg+xml</dc:format>
        <dc:type
           rdf:resource="http://purl.org/dc/dcmitype/StillImage" />
        <dc:title></dc:title>
      </cc:Work>
    </rdf:RDF>
  </metadata>
  <g
     inkscape:label="Layer 1"
     inkscape:groupmode="layer"
     id="layer1"
     transform="translate(0,-317.36231)">
    <g
       id="g4230"
       transform="matrix(1.9890695,0,0,1.9890695,-6437.3143,-3823.6172)">
      <path
         style="fill:#a3ddf8"
         d="m 3402.5447,2453.1035 c -1.1783,-0.4754 -1.494,-5.7532 -1.2841,-21.4638 l 0.2784,-20.8333 0.3783,19.6875 c 0.2398,12.4746 0.8517,19.6875 1.6704,19.6875 0.7106,0 0.9669,0.5261 0.5695,1.169 -0.3973,0.643 1.1163,1.3967 3.3638,1.675 4.0583,0.5025 4.0606,0.5066 0.3362,0.6073 -2.0625,0.056 -4.4531,-0.1824 -5.3125,-0.5292 z m 40,-0.034 c 1.2031,-0.3144 3.1719,-0.3144 4.375,0 1.2031,0.3144 0.2188,0.5717 -2.1875,0.5717 -2.4062,0 -3.3906,-0.2573 -2.1875,-0.5717 z m -46.875,-1.2162 c 0.8594,-0.3468 2.2656,-0.3468 3.125,0 0.8594,0.3468 0.1563,0.6305 -1.5625,0.6305 -1.7187,0 -2.4219,-0.2837 -1.5625,-0.6305 z m 57.5,0 c 0.8594,-0.3468 2.2656,-0.3468 3.125,0 0.8594,0.3468 0.1563,0.6305 -1.5625,0.6305 -1.7187,0 -2.4219,-0.2837 -1.5625,-0.6305 z m -68.4375,-1.6722 c -2.4487,-0.7842 -2.584,-0.9958 -0.625,-0.9775 1.375,0.013 4.1875,0.4527 6.25,0.9775 3.3684,0.8571 3.432,0.9566 0.625,0.9775 -1.7187,0.013 -4.5312,-0.4271 -6.25,-0.9775 z m 76.875,0 c 2.0625,-0.5248 4.875,-0.9647 6.25,-0.9775 1.959,-0.018 1.8237,0.1933 -0.625,0.9775 -1.7187,0.5504 -4.5312,0.9903 -6.25,0.9775 -2.807,-0.021 -2.7434,-0.1204 0.625,-0.9775 z m -98.125,-6.25 c -2.285,-1.4767 -0.3114,-1.4767 3.125,0 1.6484,0.7083 1.8613,1.0977 0.625,1.143 -1.0312,0.038 -2.7187,-0.4765 -3.75,-1.143 z m 121.875,0 c 3.4364,-1.4767 5.41,-1.4767 3.125,0 -1.0312,0.6665 -2.7187,1.1808 -3.75,1.143 -1.2363,-0.045 -1.0234,-0.4347 0.625,-1.143 z m -61.875,-3.037 c 0,-0.3438 1.125,-1.2271 2.5,-1.963 1.375,-0.7359 2.5,-1.0567 2.5,-0.713 0,0.3438 -1.125,1.2271 -2.5,1.963 -1.375,0.7359 -2.5,1.0567 -2.5,0.713 z m -73.75,-2.588 c -1.7187,-0.9825 -2.5625,-1.7864 -1.875,-1.7864 0.6875,0 2.6563,0.8039 4.375,1.7864 1.7188,0.9825 2.5625,1.7864 1.875,1.7864 -0.6875,0 -2.6562,-0.8039 -4.375,-1.7864 z m 150,0 c 1.7188,-0.9825 3.6875,-1.7864 4.375,-1.7864 0.6875,0 -0.1562,0.8039 -1.875,1.7864 -1.7187,0.9825 -3.6875,1.7864 -4.375,1.7864 -0.6875,0 0.1563,-0.8039 1.875,-1.7864 z m -63.75,-4.912 c 0,-0.3438 1.125,-1.2271 2.5,-1.963 1.375,-0.7359 2.5,-1.0567 2.5,-0.713 0,0.3438 -1.125,1.2271 -2.5,1.963 -1.375,0.7359 -2.5,1.0567 -2.5,0.713 z m -100.6986,-2.657 c -2.33,-1.8667 -2.3147,-1.8898 0.3861,-0.581 1.5469,0.7496 2.8125,1.6244 2.8125,1.944 0,0.9565 -0.6483,0.6803 -3.1986,-1.363 z m 178.1986,1.407 c 0,-0.3438 1.125,-1.2271 2.5,-1.963 1.375,-0.7359 2.5,-1.0567 2.5,-0.713 0,0.3438 -1.125,1.2271 -2.5,1.963 -1.375,0.7359 -2.5,1.0567 -2.5,0.713 z m -68.2093,-4.3266 c 0.8918,-1.443 5.7093,-4.3534 5.7093,-3.4491 0,0.2888 -1.4755,1.492 -3.2789,2.6736 -1.8034,1.1816 -2.8971,1.5306 -2.4304,0.7755 z m 76.9593,-0.5246 c 0,-0.2913 2.3906,-2.1062 5.3125,-4.0333 2.9219,-1.927 4.6526,-2.7048 3.8461,-1.7286 -1.5509,1.8773 -9.1586,6.6635 -9.1586,5.7619 z m -200.174,-4.686 -2.951,-2.5742 3.4375,2.093 c 1.8906,1.1511 3.4375,2.3095 3.4375,2.5742 0,0.976 -1.0444,0.419 -3.924,-2.093 z m 130.174,0.8193 c 0,-0.3437 2.5313,-2.3666 5.625,-4.4951 3.0938,-2.1285 5.625,-3.5889 5.625,-3.2451 0,0.3437 -2.5312,2.3666 -5.625,4.4951 -3.0937,2.1285 -5.625,3.5889 -5.625,3.2451 z m -136.4095,-5.4326 c -1.5548,-1.9826 -1.5106,-2.0268 0.472,-0.472 1.2031,0.9436 2.1875,1.928 2.1875,2.1875 0,1.0288 -1.0265,0.3667 -2.6595,-1.7155 z m 217.6595,1.7155 c 0,-0.2595 0.9844,-1.2439 2.1875,-2.1875 1.9826,-1.5548 2.0268,-1.5106 0.472,0.472 -1.633,2.0822 -2.6595,2.7443 -2.6595,1.7155 z m -222.6595,-5.4655 c -1.5548,-1.9826 -1.5106,-2.0268 0.472,-0.472 1.2031,0.9436 2.1875,1.928 2.1875,2.1875 0,1.0288 -1.0265,0.3667 -2.6595,-1.7155 z m 227.6595,1.7155 c 0,-0.2595 0.9844,-1.2439 2.1875,-2.1875 1.9826,-1.5548 2.0268,-1.5106 0.472,0.472 -1.633,2.0822 -2.6595,2.7443 -2.6595,1.7155 z m -73.75,-1.25 c 0,-0.2595 0.9844,-1.2439 2.1875,-2.1875 1.9826,-1.5548 2.0268,-1.5106 0.472,0.472 -1.633,2.0822 -2.6595,2.7443 -2.6595,1.7155 z m -160.7036,-6.0905 -3.6714,-4.0625 4.0625,3.6714 c 2.2344,2.0192 4.0625,3.8473 4.0625,4.0625 0,0.9657 -1.0314,0.1155 -4.4536,-3.6714 z m 239.4536,3.6714 c 0,-0.2152 1.8281,-2.0433 4.0625,-4.0625 l 4.0625,-3.6714 -3.6714,4.0625 c -3.4222,3.7868 -4.4536,4.6371 -4.4536,3.6714 z m -73.75,-1.2738 c 0,-0.3438 2.25,-2.4071 5,-4.5851 2.75,-2.178 5,-3.6788 5,-3.3351 0,0.3438 -2.25,2.4071 -5,4.5851 -2.75,2.178 -5,3.6788 -5,3.3351 z m 12.5,-9.9762 c 0,-0.2152 1.8281,-2.0433 4.0625,-4.0625 l 4.0625,-3.6714 -3.6714,4.0625 c -3.4222,3.7868 -4.4536,4.6371 -4.4536,3.6714 z m -88.2438,-3.6714 -2.3812,-2.8125 2.8125,2.3812 c 2.6431,2.2378 3.3816,3.2438 2.3812,3.2438 -0.2372,0 -1.5028,-1.2656 -2.8125,-2.8125 z m -108.7098,-7.5 -3.6714,-4.0625 4.0625,3.6714 c 2.2344,2.0192 4.0625,3.8473 4.0625,4.0625 0,0.9657 -1.0314,0.1155 -4.4536,-3.6714 z m 215.0786,-5.9375 c 5.4677,-5.5 10.2226,-10 10.5664,-10 0.3437,0 -3.8487,4.5 -9.3164,10 -5.4677,5.5 -10.2226,10 -10.5664,10 -0.3437,0 3.8487,-4.5 9.3164,-10 z m 61.875,9.6089 c 0,-0.2152 1.8281,-2.0433 4.0625,-4.0625 l 4.0625,-3.6714 -3.6714,4.0625 c -3.4222,3.7868 -4.4536,4.6371 -4.4536,3.6714 z m -188.125,-5.7905 c -2.75,-1.3013 -4.6468,-2.4116 -4.2151,-2.4672 1.2138,-0.1565 9.8401,3.6048 9.8401,4.2906 0,0.8378 0,0.8365 -5.625,-1.8234 z m -94.5344,-4.7559 c -1.5549,-1.9826 -1.5107,-2.0268 0.4719,-0.472 1.2031,0.9436 2.1875,1.928 2.1875,2.1875 0,1.0288 -1.0265,0.3667 -2.6594,-1.7155 z m 290.1594,1.7155 c 0,-0.2595 0.9844,-1.2439 2.1875,-2.1875 1.9826,-1.5548 2.0268,-1.5106 0.472,0.472 -1.633,2.0822 -2.6595,2.7443 -2.6595,1.7155 z m -207.8125,-2.743 c -4.673,-2.5351 -4.3886,-3.591 0.3125,-1.16 2.0625,1.0666 3.75,2.206 3.75,2.5321 0,0.8044 -0.1343,0.759 -4.0625,-1.3721 z m -86.0969,-3.9725 c -1.5549,-1.9826 -1.5107,-2.0268 0.4719,-0.472 1.2031,0.9436 2.1875,1.928 2.1875,2.1875 0,1.0288 -1.0265,0.3667 -2.6594,-1.7155 z m 297.6594,1.7155 c 0,-0.2595 0.9844,-1.2439 2.1875,-2.1875 1.9826,-1.5548 2.0268,-1.5106 0.472,0.472 -1.633,2.0822 -2.6595,2.7443 -2.6595,1.7155 z m -222.6595,-5.4655 c -1.5548,-1.9826 -1.5106,-2.0268 0.472,-0.472 1.2031,0.9436 2.1875,1.928 2.1875,2.1875 0,1.0288 -1.0265,0.3667 -2.6595,-1.7155 z m -79.5504,-2.5 c -3.2362,-4.6737 -4.2881,-6.5625 -3.655,-6.5625 0.293,0 2.0217,2.25 3.8415,5 3.6987,5.589 3.5373,6.9406 -0.1865,1.5625 z m 307.849,0.4664 c 1.1816,-1.8034 2.3848,-3.2789 2.6736,-3.2789 0.9043,0 -2.0061,4.8175 -3.4491,5.7093 -0.7551,0.4667 -0.4061,-0.627 0.7755,-2.4304 z m -240.4407,-7.7281 c -4.8707,-4.5096 -10.6363,-10.5565 -12.8123,-13.4375 -2.7053,-3.5818 -1.912,-2.9829 2.5089,1.894 3.5559,3.9228 9.6749,9.9617 13.5977,13.4199 3.9227,3.4581 6.7789,6.2954 6.347,6.3051 -0.432,0.01 -4.7705,-3.6719 -9.6413,-8.1815 z m 68.6503,6.22 c 0.06,-1.4562 0.3562,-1.7523 0.7552,-0.7552 0.3611,0.9024 0.3167,1.9805 -0.099,2.3959 -0.4154,0.4153 -0.7108,-0.323 -0.6566,-1.6407 z m 6.1513,1.4961 c 0,-0.2657 1.6578,-0.7265 3.684,-1.0238 2.0262,-0.2974 3.3992,-0.08 3.0512,0.4831 -0.6194,1.0022 -6.7352,1.4931 -6.7352,0.5407 z m 97.5,0.092 c 0,-0.2152 1.8281,-2.0433 4.0625,-4.0625 l 4.0625,-3.6714 -3.6714,4.0625 c -3.4222,3.7868 -4.4536,4.6371 -4.4536,3.6714 z m -103.6513,-9.0881 c 0.06,-1.4561 0.3562,-1.7523 0.7552,-0.7552 0.3611,0.9024 0.3167,1.9805 -0.099,2.3959 -0.4154,0.4153 -0.7108,-0.323 -0.6566,-1.6407 z m 30.9918,-1.4583 c -1.5548,-1.9826 -1.5106,-2.0268 0.472,-0.472 1.2031,0.9436 2.1875,1.928 2.1875,2.1875 0,1.0288 -1.0265,0.3667 -2.6595,-1.7155 z m 80.1595,1.7155 c 0,-0.2595 0.9844,-1.2439 2.1875,-2.1875 1.9826,-1.5548 2.0268,-1.5106 0.472,0.472 -1.633,2.0822 -2.6595,2.7443 -2.6595,1.7155 z m -255,-4.528 c -0.7359,-1.375 -1.0567,-2.5 -0.713,-2.5 0.3438,0 1.2271,1.125 1.963,2.5 0.7359,1.375 1.0567,2.5 0.713,2.5 -0.3438,0 -1.2271,-1.125 -1.963,-2.5 z m 323.75,0 c 0.7359,-1.375 1.6192,-2.5 1.963,-2.5 0.3437,0 0.023,1.125 -0.713,2.5 -0.7359,1.375 -1.6192,2.5 -1.963,2.5 -0.3437,0 -0.023,-1.125 0.713,-2.5 z m -130.625,-15 c 4.7756,-4.8125 8.9642,-8.75 9.3079,-8.75 0.3438,0 -3.2823,3.9375 -8.0579,8.75 -4.7756,4.8125 -8.9642,8.75 -9.3079,8.75 -0.3438,0 3.2823,-3.9375 8.0579,-8.75 z m -200.4219,0.5715 c -2.0944,-4.5966 -1.6948,-5.5773 0.5698,-1.3985 1.0575,1.9514 1.6888,3.7819 1.403,4.0678 -0.2859,0.2859 -1.1737,-0.9153 -1.9728,-2.6693 z m 337.3855,2.5535 c 0,-0.6875 0.8039,-2.6562 1.7864,-4.375 0.9825,-1.7187 1.7864,-2.5625 1.7864,-1.875 0,0.6875 -0.8039,2.6563 -1.7864,4.375 -0.9825,1.7188 -1.7864,2.5625 -1.7864,1.875 z m -61.3386,-3.125 c 0.7359,-1.375 1.6192,-2.5 1.963,-2.5 0.3437,0 0.023,1.125 -0.713,2.5 -0.7359,1.375 -1.6192,2.5 -1.963,2.5 -0.3437,0 -0.023,-1.125 0.713,-2.5 z m -212.6595,-0.9375 c -1.5548,-1.9826 -1.5106,-2.0268 0.472,-0.472 1.2031,0.9436 2.1875,1.928 2.1875,2.1875 0,1.0288 -1.0265,0.3667 -2.6595,-1.7155 z m 217.6595,-7.8125 c 1.403,-2.75 2.8321,-5 3.1758,-5 0.3438,0 -0.5228,2.25 -1.9258,5 -1.403,2.75 -2.8321,5 -3.1758,5 -0.3438,0 0.5228,-2.25 1.9258,-5 z m -112.5,2.028 c 0,-0.2595 0.9844,-1.2439 2.1875,-2.1875 1.9826,-1.5548 2.0268,-1.5106 0.472,0.472 -1.633,2.0822 -2.6595,2.7443 -2.6595,1.7155 z m -111.875,-4.528 c -1.0666,-2.0625 -1.6579,-3.75 -1.3142,-3.75 0.3438,0 1.4976,1.6875 2.5642,3.75 1.0666,2.0625 1.6579,3.75 1.3142,3.75 -0.3438,0 -1.4976,-1.6875 -2.5642,-3.75 z m 287.0266,-1.2785 c 1.8924,-5.5972 2.9579,-6.6837 1.8108,-1.8465 -0.4891,2.0625 -1.4273,4.2997 -2.0848,4.9715 -0.6576,0.6718 -0.5342,-0.7345 0.274,-3.125 z m -349.3722,-0.6448 c -0.4287,-1.1171 -0.7437,-2.6883 -0.7002,-3.4914 0.044,-0.8032 0.6182,-0.113 1.2769,1.5337 0.6587,1.6467 0.9738,3.2178 0.7002,3.4914 -0.2736,0.2736 -0.8482,-0.4166 -1.2769,-1.5337 z m 291.7589,-4.9517 c 0,-0.6875 0.5452,-2.0937 1.2117,-3.125 0.6665,-1.0312 1.2117,-1.3125 1.2117,-0.625 0,0.6875 -0.5452,2.0938 -1.2117,3.125 -0.6665,1.0313 -1.2117,1.3125 -1.2117,0.625 z m -234.8352,-3.8035 c -2.0944,-4.5966 -1.6948,-5.5773 0.5698,-1.3985 1.0575,1.9514 1.6888,3.7819 1.403,4.0678 -0.2859,0.2859 -1.1737,-0.9153 -1.9728,-2.6693 z m 127.6715,-4.3215 c 0,-3.7812 0.2343,-5.3281 0.5207,-3.4375 0.2864,1.8906 0.2864,4.9844 0,6.875 -0.2864,1.8906 -0.5207,0.3438 -0.5207,-3.4375 z m 109.6637,1.875 c 0,-0.6875 0.5452,-2.0937 1.2117,-3.125 0.6665,-1.0312 1.2117,-1.3125 1.2117,-0.625 0,0.6875 -0.5452,2.0938 -1.2117,3.125 -0.6665,1.0313 -1.2117,1.3125 -1.2117,0.625 z m -300.6633,-11.875 c -0.4803,-2.8427 -0.611,-5.4306 -0.2906,-5.7511 0.3205,-0.3205 0.9575,1.7613 1.4156,4.6261 0.4581,2.8648 0.5889,5.4528 0.2906,5.7511 -0.2983,0.2983 -0.9353,-1.7834 -1.4156,-4.6261 z m 362.1475,3.125 c 0.013,-1.375 0.4527,-4.1875 0.9775,-6.25 0.8571,-3.3684 0.9566,-3.432 0.9775,-0.625 0.013,1.7188 -0.4271,4.5313 -0.9775,6.25 -0.7842,2.4487 -0.9958,2.584 -0.9775,0.625 z m -123.9833,-1.9257 c 2.2235,-1.4062 5.8496,-1.5493 6.6357,-0.2618 0.3149,0.5156 -1.4624,1.0467 -3.9495,1.1802 -3.2023,0.1718 -3.9863,-0.096 -2.6862,-0.9184 z m -181.1378,-4.5106 c -2.3196,-8.8415 -3.009,-12.3191 -2.3171,-11.6887 0.9712,0.8849 4.6668,15.4156 4.0719,16.0105 -0.2705,0.2705 -1.0602,-1.6743 -1.7548,-4.3218 z m 248.6973,0.082 c 0.06,-1.4562 0.3562,-1.7524 0.7552,-0.7552 0.3611,0.9023 0.3167,1.9805 -0.099,2.3958 -0.4154,0.4154 -0.7108,-0.3229 -0.6566,-1.6406 z m 1.25,-5 c 0.06,-1.4562 0.3562,-1.7524 0.7552,-0.7552 0.3611,0.9023 0.3167,1.9805 -0.099,2.3958 -0.4154,0.4154 -0.7108,-0.3229 -0.6566,-1.6406 z m -308.6513,-1.7708 c 0,-1.7187 0.2837,-2.4219 0.6305,-1.5625 0.3467,0.8594 0.3467,2.2656 0,3.125 -0.3468,0.8594 -0.6305,0.1563 -0.6305,-1.5625 z m 366.2963,-0.625 c 0.026,-2.0625 0.3056,-2.7549 0.6225,-1.5387 0.317,1.2162 0.2961,2.9037 -0.046,3.75 -0.3425,0.8463 -0.6017,-0.1488 -0.5763,-2.2113 z m -184.9082,-2.3407 c 3.2782,-1.552 5.5751,-3.207 5.1041,-3.678 -0.4709,-0.471 -0.5011,-0.8563 -0.067,-0.8563 0.4341,0 1.4278,1.1929 2.208,2.6509 0.7862,1.4689 0.865,2.3086 0.1768,1.8832 -0.683,-0.4221 -3.2524,0.073 -5.7096,1.0992 -6.9916,2.9213 -8.3556,2.0458 -1.7124,-1.099 z m 128.5132,-0.2635 c 0.06,-1.4562 0.3562,-1.7523 0.7552,-0.7552 0.3611,0.9024 0.3167,1.9805 -0.099,2.3959 -0.4154,0.4153 -0.7108,-0.323 -0.6566,-1.6407 z m -119.3933,-4.6372 c 0.4694,-1.2328 1.1683,-1.9265 1.5532,-1.5417 0.3849,0.3849 8e-4,1.3935 -0.8535,2.2414 -1.2345,1.2254 -1.3781,1.0818 -0.6997,-0.6997 z m -191.7117,-2.7586 c 0.026,-2.0625 0.3056,-2.7549 0.6225,-1.5387 0.317,1.2162 0.2961,2.9037 -0.046,3.75 -0.3424,0.8463 -0.6017,-0.1488 -0.5762,-2.2113 z m 368.75,0 c 0.026,-2.0625 0.3056,-2.7549 0.6225,-1.5387 0.317,1.2162 0.2961,2.9037 -0.046,3.75 -0.3425,0.8463 -0.6017,-0.1488 -0.5763,-2.2113 z m -312.5,-1.25 c 0.026,-2.0625 0.3056,-2.7549 0.6225,-1.5387 0.317,1.2162 0.2961,2.9037 -0.046,3.75 -0.3424,0.8463 -0.6017,-0.1488 -0.5762,-2.2113 z m 140.3813,0.625 c 1.2444,-1.375 2.5437,-2.5 2.8875,-2.5 0.3437,0 -0.3931,1.125 -1.6375,2.5 -1.2444,1.375 -2.5437,2.5 -2.8875,2.5 -0.3437,0 0.3931,-1.125 1.6375,-2.5 z m 115.8687,-0.625 c 0.026,-2.0625 0.3056,-2.7549 0.6225,-1.5387 0.317,1.2162 0.2961,2.9037 -0.046,3.75 -0.3425,0.8463 -0.6017,-0.1488 -0.5763,-2.2113 z m -90.3383,-4.0625 -3.0304,-3.4375 3.4375,3.0304 c 3.2129,2.8323 4.0107,3.8446 3.0304,3.8446 -0.2239,0 -1.7708,-1.5469 -3.4375,-3.4375 z m -20.5304,-1.5625 c 1.2444,-1.375 2.5437,-2.5 2.8875,-2.5 0.3437,0 -0.3931,1.125 -1.6375,2.5 -1.2444,1.375 -2.5437,2.5 -2.8875,2.5 -0.3437,0 0.3931,-1.125 1.6375,-2.5 z m -146.4749,-11.25 c 0,-4.4687 0.2269,-6.2969 0.5041,-4.0625 0.2773,2.2344 0.2773,5.8906 0,8.125 -0.2772,2.2344 -0.5041,0.4063 -0.5041,-4.0625 z m 258.75,0 c 0,-4.4687 0.2269,-6.2969 0.5042,-4.0625 0.2772,2.2344 0.2772,5.8906 0,8.125 -0.2773,2.2344 -0.5042,0.4063 -0.5042,-4.0625 z m -97.7426,4.5647 c -1.0733,-1.2932 -0.7455,-2.2382 1.4094,-4.0625 2.8009,-2.3711 2.8026,-2.3706 0.6377,0.2024 -1.6743,1.9898 -1.8314,2.9186 -0.6875,4.0625 0.8156,0.8156 1.158,1.4829 0.7609,1.4829 -0.397,0 -1.3513,-0.7584 -2.1205,-1.6853 z m -5.9908,-1.2314 c 0,-0.9166 0.741,-1.6666 1.6468,-1.6666 1.2306,0 1.2972,0.4212 0.2636,1.6666 -0.7608,0.9167 -1.5018,1.6667 -1.6468,1.6667 -0.145,0 -0.2636,-0.75 -0.2636,-1.6667 z m -32.4105,-2.3958 -2.3812,-2.8125 2.8125,2.3812 c 2.6431,2.2378 3.3816,3.2438 2.3812,3.2438 -0.2372,0 -1.5028,-1.2656 -2.8125,-2.8125 z m -177.7162,-18.4375 c 0,-2.4062 0.2572,-3.3906 0.5717,-2.1875 0.3144,1.2031 0.3144,3.1719 0,4.375 -0.3145,1.2031 -0.5717,0.2188 -0.5717,-2.1875 z m 56.2037,0.625 c 0.026,-2.0625 0.3056,-2.7549 0.6225,-1.5387 0.317,1.2162 0.2961,2.9037 -0.046,3.75 -0.3424,0.8463 -0.6017,-0.1488 -0.5762,-2.2113 z m 256.25,0 c 0.026,-2.0625 0.3056,-2.7549 0.6225,-1.5387 0.317,1.2162 0.2961,2.9037 -0.046,3.75 -0.3425,0.8463 -0.6017,-0.1488 -0.5763,-2.2113 z m 56.25,-1.25 c 0.026,-2.0625 0.3056,-2.7549 0.6225,-1.5387 0.317,1.2162 0.2961,2.9037 -0.046,3.75 -0.3425,0.8463 -0.6017,-0.1488 -0.5763,-2.2113 z m -208.895,-2.6042 c 0.06,-1.4562 0.3562,-1.7523 0.7552,-0.7552 0.3611,0.9024 0.3167,1.9805 -0.099,2.3959 -0.4154,0.4153 -0.7108,-0.323 -0.6566,-1.6407 z m -102.5,-5 c 0.06,-1.4562 0.3562,-1.7523 0.7552,-0.7552 0.3611,0.9024 0.3167,1.9805 -0.099,2.3959 -0.4154,0.4153 -0.7108,-0.323 -0.6565,-1.6407 z m 253.0263,-1.7708 c -0.4746,-2.1608 -0.6023,-4.1893 -0.2839,-4.5078 0.3185,-0.3185 0.9384,1.2179 1.3777,3.4141 1.042,5.2103 0.032,6.2201 -1.0938,1.0937 z m -309.1313,-0.625 c 0.026,-2.0625 0.3056,-2.7549 0.6225,-1.5387 0.317,1.2162 0.2961,2.9037 -0.046,3.75 -0.3424,0.8463 -0.6017,-0.1488 -0.5762,-2.2113 z m 366.25,0 c 0.026,-2.0625 0.3056,-2.7549 0.6225,-1.5387 0.317,1.2162 0.2961,2.9037 -0.046,3.75 -0.3425,0.8463 -0.6017,-0.1488 -0.5763,-2.2113 z m -308.895,-2.6042 c 0.06,-1.4562 0.3562,-1.7523 0.7552,-0.7552 0.3611,0.9024 0.3167,1.9805 -0.099,2.3959 -0.4154,0.4153 -0.7108,-0.323 -0.6565,-1.6407 z m 114.9013,-0.331 c 0,-0.6315 1.125,-1.4424 2.5,-1.802 1.375,-0.3596 2.5,-0.445 2.5,-0.1897 0,0.2551 -1.125,1.066 -2.5,1.8019 -1.3812,0.7392 -2.5,0.8241 -2.5,0.1898 z m -171.0476,-3.9398 c -0.01,-3.0304 3.2066,-14.3864 3.3636,-11.875 0.043,0.6875 -0.694,4.3438 -1.6377,8.125 -0.9436,3.7813 -1.7203,5.4688 -1.7259,3.75 z m 362.5951,-4.5015 c -0.8309,-3.9611 -1.3011,-7.4116 -1.0449,-7.6677 0.7161,-0.7161 3.5419,11.9107 3.0176,13.4837 -0.2541,0.7623 -1.1418,-1.8549 -1.9727,-5.816 z m -305.1218,4.5015 c 0,-1.0312 0.4834,-3 1.0743,-4.375 0.6771,-1.5758 1.0743,-1.8068 1.0743,-0.625 0,1.0313 -0.4834,3 -1.0743,4.375 -0.6771,1.5758 -1.0743,1.8068 -1.0743,0.625 z m 248.673,0.4147 c -0.054,-0.8031 -0.4224,-2.4906 -0.8181,-3.75 -0.6838,-2.1765 -0.6485,-2.1792 0.7135,-0.055 0.7881,1.229 1.1562,2.9165 0.8181,3.75 -0.4438,1.0938 -0.6423,1.1091 -0.7135,0.055 z m -131.8933,-3.7983 c -0.6784,-1.7815 -0.5348,-1.9251 0.6997,-0.6997 0.8543,0.8479 1.2384,1.8565 0.8535,2.2414 -0.3849,0.3848 -1.0838,-0.3089 -1.5532,-1.5417 z m -48.2054,-4.699 c 0,-1.6183 4.3535,-9.4174 5.2569,-9.4174 0.5742,0 -0.104,2.25 -1.5069,5 -2.2529,4.416 -3.75,6.1796 -3.75,4.4174 z m 22.5987,-2.6466 c 0.06,-1.4562 0.3562,-1.7523 0.7552,-0.7552 0.3611,0.9024 0.3167,1.9805 -0.099,2.3959 -0.4154,0.4153 -0.7108,-0.323 -0.6566,-1.6407 z m 88.75,0 c 0.06,-1.4562 0.3562,-1.7523 0.7552,-0.7552 0.3611,0.9024 0.3167,1.9805 -0.099,2.3959 -0.4154,0.4153 -0.7108,-0.323 -0.6566,-1.6407 z m -8.5335,-3.6458 c 0.014,-2.75 0.2699,-3.7278 0.5689,-2.1729 0.299,1.5549 0.2876,3.8049 -0.025,5 -0.3128,1.1951 -0.5575,-0.077 -0.5436,-2.8271 z m -166.5269,0 c 0,-0.6875 0.5452,-2.0937 1.2117,-3.125 0.6665,-1.0312 1.2117,-1.3125 1.2117,-0.625 0,0.6875 -0.5452,2.0938 -1.2117,3.125 -0.6665,1.0313 -1.2117,1.3125 -1.2117,0.625 z m 237.6648,-2.5535 c -2.0944,-4.5966 -1.6948,-5.5773 0.5698,-1.3985 1.0575,1.9514 1.6888,3.7819 1.403,4.0678 -0.2859,0.2859 -1.1737,-0.9153 -1.9728,-2.6693 z m -148.9531,-1.0435 c 0,-0.2595 0.9844,-1.2439 2.1875,-2.1875 1.9826,-1.5548 2.0268,-1.5106 0.472,0.472 -1.633,2.0822 -2.6595,2.7443 -2.6595,1.7155 z m 87.9001,-7.028 c 0,-4.4687 0.2269,-6.2969 0.5042,-4.0625 0.2772,2.2344 0.2772,5.8906 0,8.125 -0.2773,2.2344 -0.5042,0.4063 -0.5042,-4.0625 z m -104.6463,1.4583 c -0.3541,-0.5729 0.1504,-1.0416 1.1212,-1.0416 0.9708,0 1.4753,0.4687 1.1212,1.0416 -0.354,0.573 -0.8586,1.0417 -1.1212,1.0417 -0.2626,0 -0.7672,-0.4687 -1.1212,-1.0417 z m 25.2618,0.1878 c 0.9024,-0.3611 1.9805,-0.3167 2.3959,0.099 0.4153,0.4154 -0.323,0.7108 -1.6407,0.6566 -1.4562,-0.06 -1.7523,-0.3562 -0.7552,-0.7552 z m 197.8331,0.019 c -0.054,-0.8031 -0.4224,-2.4906 -0.8181,-3.75 -0.6838,-2.1765 -0.6485,-2.1792 0.7135,-0.055 0.7881,1.229 1.1562,2.9165 0.8181,3.75 -0.4438,1.0938 -0.6423,1.1091 -0.7135,0.055 z m -231.0362,-1.2764 c 1.2031,-0.3144 3.1719,-0.3144 4.375,0 1.2031,0.3144 0.2188,0.5717 -2.1875,0.5717 -2.4062,0 -3.3906,-0.2573 -2.1875,-0.5717 z m 167.8125,-4.1383 c -1.0666,-2.0625 -1.658,-3.75 -1.3142,-3.75 0.3437,0 1.4976,1.6875 2.5642,3.75 1.0666,2.0625 1.658,3.75 1.3142,3.75 -0.3437,0 -1.4976,-1.6875 -2.5642,-3.75 z m -224.375,-1.25 c 0.7359,-1.375 1.6192,-2.5 1.963,-2.5 0.3437,0 0.023,1.125 -0.713,2.5 -0.7359,1.375 -1.6192,2.5 -1.963,2.5 -0.3437,0 -0.023,-1.125 0.713,-2.5 z m 50.0987,-1.9792 c 0.06,-1.4562 0.3562,-1.7523 0.7552,-0.7552 0.3611,0.9024 0.3167,1.9805 -0.099,2.3959 -0.4154,0.4153 -0.7108,-0.323 -0.6566,-1.6407 z m 13.4169,1.1253 c 0.9024,-0.3611 1.9805,-0.3167 2.3959,0.099 0.4153,0.4154 -0.323,0.7108 -1.6407,0.6566 -1.4562,-0.06 -1.7523,-0.3562 -0.7552,-0.7552 z m 68.4398,-0.7625 c 0.4694,-1.2328 1.1683,-1.9265 1.5532,-1.5417 0.3849,0.3849 8e-4,1.3935 -0.8535,2.2414 -1.2345,1.2254 -1.3781,1.0818 -0.6997,-0.6997 z m -22.05,-4.3211 -3.0304,-3.4375 3.4375,3.0304 c 1.8906,1.6667 3.4375,3.2136 3.4375,3.4375 0,0.9803 -1.0123,0.1825 -3.8446,-3.0304 z m -38.6554,1.1312 c 0,-0.5809 1.2656,-2.1278 2.8125,-3.4375 l 2.8125,-2.3812 -2.2639,2.6829 c -1.7472,2.0705 -1.8899,2.8325 -0.625,3.3388 1.0704,0.4284 0.8801,0.6902 -0.5486,0.7546 -1.2031,0.054 -2.1875,-0.3766 -2.1875,-0.9576 z m 10.625,-0.2148 -5,-0.6613 5.4794,-0.9503 c 5.887,-1.0209 6.7462,-0.8533 5.3901,1.0515 -0.4782,0.6717 -3.1195,0.9238 -5.8695,0.5601 z m 9.9514,-1.3075 c -1.1363,-1.8387 -0.8408,-1.9692 6.6111,-2.9201 4.1578,-0.5306 6.5625,-0.3723 6.5625,0.4318 0,0.6981 -1.4062,1.5612 -3.125,1.9181 -1.7187,0.3568 -4.4968,0.9321 -6.1734,1.2784 -1.6766,0.3463 -3.4204,0.028 -3.8752,-0.7082 z m 22.6739,0.2814 c -0.3972,-0.6427 0.3959,-1.461 1.7625,-1.8183 2.4631,-0.6441 4.6798,1.0896 3.2374,2.532 -0.4126,0.4126 -0.7502,0.025 -0.7502,-0.8612 0,-1.2454 -0.4005,-1.279 -1.7637,-0.1477 -1.0408,0.8638 -2.0598,0.9848 -2.486,0.2952 z m -173.1617,-0.8278 c 0,-0.6875 0.8039,-2.6562 1.7864,-4.375 0.9825,-1.7187 1.7864,-2.5625 1.7864,-1.875 0,0.6875 -0.8039,2.6563 -1.7864,4.375 -0.9825,1.7188 -1.7864,2.5625 -1.7864,1.875 z m 186.4739,-1.1151 c 3.3195,-2.5198 2.6582,-3.9389 -2.5,-5.3646 l -4.6875,-1.2956 4.8273,0.29 c 5.7596,0.3461 7.7629,2.7481 4.9157,5.8943 -1.103,1.2188 -2.6214,2.1981 -3.3742,2.1763 -0.7529,-0.022 -0.3844,-0.7871 0.8187,-1.7004 z m 153.6406,-1.4384 c -2.0944,-4.5966 -1.6948,-5.5773 0.5698,-1.3985 1.0575,1.9514 1.6888,3.7819 1.403,4.0678 -0.2859,0.2859 -1.1737,-0.9153 -1.9728,-2.6693 z m -66.8503,-4.009 c -4.3386,-5.9081 -15.6937,-17.2188 -25.2278,-25.1291 -4.518,-3.7485 -4.5783,-3.8683 -0.625,-1.243 6.4251,4.2667 22.5283,19.9485 27.2821,26.568 2.2678,3.1579 3.8549,5.7416 3.527,5.7416 -0.3279,0 -2.5583,-2.6719 -4.9563,-5.9375 z m -133.3528,2.9655 c 0,-0.2595 0.9844,-1.2439 2.1875,-2.1875 1.9826,-1.5548 2.0268,-1.5106 0.472,0.472 -1.633,2.0822 -2.6595,2.7443 -2.6595,1.7155 z m 38.2664,-1.0067 c 0.361,-0.5841 1.18,-0.7385 1.82,-0.3429 1.6354,1.0108 1.4513,1.4049 -0.6564,1.4049 -1.001,0 -1.5246,-0.4779 -1.1636,-1.062 z m -112.0164,-0.2433 c 0,-0.2595 0.9844,-1.2439 2.1875,-2.1875 1.9826,-1.5548 2.0268,-1.5106 0.472,0.472 -1.633,2.0822 -2.6595,2.7443 -2.6595,1.7155 z m 103.0965,-2.074 c -0.5062,-0.8192 0.8167,-1.1871 3.5955,-1 2.4181,0.1628 4.1184,0.7461 3.7785,1.2961 -0.8962,1.4499 -6.4322,1.2277 -7.374,-0.2961 z m -89.9715,-12.454 c 5.4677,-5.5 10.2226,-10 10.5664,-10 0.3437,0 -3.8487,4.5 -9.3164,10 -5.4677,5.5 -10.2226,10 -10.5664,10 -0.3437,0 3.8487,-4.5 9.3164,-10 z m 121.7155,5.3125 c -1.5548,-1.9826 -1.5106,-2.0268 0.472,-0.472 1.2031,0.9436 2.1875,1.928 2.1875,2.1875 0,1.0288 -1.0265,0.3667 -2.6595,-1.7155 z m -192.9655,-2.8125 c 1.0666,-2.0625 2.2204,-3.75 2.5642,-3.75 0.3437,0 -0.2476,1.6875 -1.3142,3.75 -1.0666,2.0625 -2.2204,3.75 -2.5642,3.75 -0.3437,0 0.2476,-1.6875 1.3142,-3.75 z m 136.875,3.278 c 0,-0.2595 0.9844,-1.2439 2.1875,-2.1875 1.9826,-1.5548 2.0268,-1.5106 0.472,0.472 -1.633,2.0822 -2.6595,2.7443 -2.6595,1.7155 z m 188.125,-3.278 c -1.0666,-2.0625 -1.658,-3.75 -1.3142,-3.75 0.3437,0 1.4976,1.6875 2.5642,3.75 1.0666,2.0625 1.658,3.75 1.3142,3.75 -0.3437,0 -1.4976,-1.6875 -2.5642,-3.75 z m -159.0387,-3.3662 c 1.2162,-0.317 2.9037,-0.2961 3.75,0.046 0.8463,0.3424 -0.1488,0.6017 -2.2113,0.5762 -2.0625,-0.025 -2.7549,-0.3056 -1.5387,-0.6225 z m 10,0 c 1.2162,-0.317 2.9037,-0.2961 3.75,0.046 0.8463,0.3424 -0.1488,0.6017 -2.2113,0.5762 -2.0625,-0.025 -2.7549,-0.3056 -1.5387,-0.6225 z m 30.7542,-2.5713 c -1.5548,-1.9826 -1.5106,-2.0268 0.472,-0.472 2.0822,1.633 2.7443,2.6595 1.7155,2.6595 -0.2595,0 -1.2439,-0.9844 -2.1875,-2.1875 z m -198.6278,-7.7429 c 0.7154,-1.3367 1.9186,-2.8122 2.6737,-3.2789 0.7551,-0.4667 0.4061,0.627 -0.7755,2.4304 -2.502,3.8186 -3.7976,4.3977 -1.8982,0.8485 z m 308.1764,-0.8485 c -1.1816,-1.8034 -1.5306,-2.8971 -0.7755,-2.4304 1.443,0.8918 4.3534,5.7093 3.4491,5.7093 -0.2888,0 -1.492,-1.4755 -2.6736,-3.2789 z m -231.9919,0.3246 c 1.6646,-2.0497 6.3528,-5.149 6.3528,-4.1998 0,0.2387 -1.8281,1.7723 -4.0625,3.408 -2.5139,1.8403 -3.3869,2.1421 -2.2903,0.7918 z m 84.8684,-0.3996 c 0.9024,-0.3611 1.9805,-0.3167 2.3959,0.099 0.4153,0.4154 -0.323,0.7108 -1.6407,0.6565 -1.4562,-0.06 -1.7523,-0.3562 -0.7552,-0.7552 z m 9.3141,-1.2931 c 1.9001,-0.2873 4.7126,-0.2796 6.25,0.017 1.5374,0.2967 -0.017,0.5318 -3.4547,0.5224 -3.4375,-0.01 -4.6954,-0.2522 -2.7953,-0.5395 z m -166.5797,-3.3249 c 0,-0.2596 0.9844,-1.244 2.1875,-2.1875 1.9826,-1.5549 2.0268,-1.5107 0.4719,0.4719 -1.6329,2.0822 -2.6594,2.7443 -2.6594,1.7156 z m 299.8405,-1.7156 c -1.5548,-1.9826 -1.5106,-2.0268 0.472,-0.4719 1.2031,0.9435 2.1875,1.9279 2.1875,2.1875 0,1.0287 -1.0265,0.3666 -2.6595,-1.7156 z m -216.0905,-0.8733 c 0,-0.3438 1.6875,-1.4976 3.75,-2.5642 2.0625,-1.0666 3.75,-1.6579 3.75,-1.3142 0,0.3438 -1.6875,1.4976 -3.75,2.5642 -2.0625,1.0666 -3.75,1.6579 -3.75,1.3142 z m 130.9375,-1.4042 c -4.673,-2.5351 -4.3886,-3.591 0.3125,-1.16 2.0625,1.0666 3.75,2.206 3.75,2.5321 0,0.8044 -0.1343,0.759 -4.0625,-1.3721 z m -210.9375,-1.0069 c 0,-0.2596 0.9844,-1.244 2.1875,-2.1875 1.9826,-1.5549 2.0268,-1.5107 0.4719,0.4719 -1.6329,2.0822 -2.6594,2.7443 -2.6594,1.7156 z m 288.1143,-6.7156 c -3.362,-3.9531 -4.8135,-6.0625 -3.2257,-4.6875 3.0152,2.6111 10.6836,11.875 9.8298,11.875 -0.2704,0 -3.2422,-3.2344 -6.6041,-7.1875 z m -89.3643,1.5625 c -1.7187,-0.9825 -2.5625,-1.7864 -1.875,-1.7864 0.6875,0 2.6563,0.8039 4.375,1.7864 1.7188,0.9825 2.5625,1.7864 1.875,1.7864 -0.6875,0 -2.6562,-0.8039 -4.375,-1.7864 z m -191.25,-3.75 c 2.3322,-2.4062 4.5217,-4.375 4.8654,-4.375 0.3438,0 -1.2832,1.9688 -3.6154,4.375 -2.3322,2.4063 -4.5217,4.375 -4.8654,4.375 -0.3438,0 1.2832,-1.9687 3.6154,-4.375 z m 87.5,3.125 c 1.0313,-0.6664 2.4375,-1.2117 3.125,-1.2117 0.6875,0 0.4063,0.5453 -0.625,1.2117 -1.0312,0.6664 -2.4375,1.2117 -3.125,1.2117 -0.6875,0 -0.4062,-0.5453 0.625,-1.2117 z m 13.125,-5 c 1.375,-0.5909 3.3438,-1.0743 4.375,-1.0743 1.1818,0 0.9508,0.3972 -0.625,1.0743 -1.375,0.5909 -3.3437,1.0743 -4.375,1.0743 -1.1818,0 -0.9508,-0.3972 0.625,-1.0743 z m 72.5,-0.672 c -4.9294,-1.7054 -4.9382,-1.7194 -0.625,-0.9917 5.0991,0.8602 10.3123,2.7636 7.5,2.7384 -1.0312,-0.01 -4.125,-0.7953 -6.875,-1.7467 z m -63.125,-1.828 c 4.274,-1.3688 7.5603,-1.3688 4.375,0 -1.375,0.5909 -3.625,1.0578 -5,1.0375 -2.0097,-0.029 -1.8872,-0.233 0.625,-1.0375 z m 54.7656,-0.8539 c 0.9024,-0.3611 1.9805,-0.3167 2.3959,0.099 0.4153,0.4154 -0.323,0.7108 -1.6407,0.6565 -1.4562,-0.06 -1.7523,-0.3562 -0.7552,-0.7552 z m -43.1793,-1.2623 c 1.2162,-0.317 2.9037,-0.2961 3.75,0.046 0.8463,0.3424 -0.1488,0.6017 -2.2113,0.5762 -2.0625,-0.025 -2.7549,-0.3056 -1.5387,-0.6225 z m 34.3512,0.038 c 0.8594,-0.3467 2.2656,-0.3467 3.125,0 0.8594,0.3468 0.1563,0.6305 -1.5625,0.6305 -1.7187,0 -2.4219,-0.2837 -1.5625,-0.6305 z m -20.0279,-1.3243 c 2.2191,-0.2761 6.1566,-0.2806 8.75,-0.01 2.5935,0.2706 0.7779,0.4965 -4.0346,0.5021 -4.8125,0.01 -6.9344,-0.2159 -4.7154,-0.492 z m -119.6596,-8.3456 c 3.1984,-3.5628 17.6497,-14.7715 24.375,-18.9056 5.5085,-3.3862 2.2901,-0.5084 -5.625,5.0298 -3.7812,2.6457 -10.25,7.6334 -14.375,11.0836 -4.125,3.4503 -6.0937,4.7068 -4.375,2.7922 z m 241.7958,-3.6484 c -4.1685,-3.5633 -9.231,-7.7692 -11.25,-9.3463 -2.0189,-1.5771 -1.1013,-1.1987 2.0392,0.841 5.3108,3.4493 18.8145,15.0945 17.415,15.0182 -0.3437,-0.019 -4.0356,-2.9496 -8.2042,-6.5129 z m -210.5458,-18.9146 c 0,-0.3438 1.6875,-1.4976 3.75,-2.5642 2.0625,-1.0666 3.75,-1.6579 3.75,-1.3142 0,0.3438 -1.6875,1.4976 -3.75,2.5642 -2.0625,1.0666 -3.75,1.6579 -3.75,1.3142 z m 180.9375,-1.4042 c -4.673,-2.5351 -4.3886,-3.591 0.3125,-1.16 2.0625,1.0666 3.75,2.206 3.75,2.5321 0,0.8044 -0.1343,0.759 -4.0625,-1.3721 z m -165.9375,-6.785 c 2.4063,-1.3174 4.9375,-2.3952 5.625,-2.3952 0.6875,0 -0.7187,1.0778 -3.125,2.3952 -2.4062,1.3174 -4.9375,2.3952 -5.625,2.3952 -0.6875,0 0.7188,-1.0778 3.125,-2.3952 z m 152.5,0 c -2.4062,-1.3174 -3.8125,-2.3952 -3.125,-2.3952 0.6875,0 3.2188,1.0778 5.625,2.3952 2.4063,1.3174 3.8125,2.3952 3.125,2.3952 -0.6875,0 -3.2187,-1.0778 -5.625,-2.3952 z m -137.5,-6.25 c 1.0313,-0.6664 2.7188,-1.1808 3.75,-1.143 1.2363,0.045 1.0234,0.4346 -0.625,1.143 -3.4364,1.4767 -5.41,1.4767 -3.125,0 z m 121.25,0 c -1.6667,-1.0771 -1.6667,-1.2117 0,-1.2117 1.0313,0 2.7188,0.5453 3.75,1.2117 1.6667,1.0771 1.6667,1.2117 0,1.2117 -1.0312,0 -2.7187,-0.5453 -3.75,-1.2117 z m -110.2344,-3.3539 c 0.9024,-0.3611 1.9805,-0.3167 2.3959,0.099 0.4153,0.4154 -0.323,0.7108 -1.6407,0.6565 -1.4562,-0.06 -1.7523,-0.3562 -0.7552,-0.7552 z m 8.4223,-2.2431 c 2.7846,-0.8798 8.1283,-1.9288 11.875,-2.3311 5.3747,-0.577 4.5702,-0.2324 -3.8129,1.6333 -12.2534,2.727 -15.3254,2.9929 -8.0621,0.6978 z m 77.4371,-0.7689 c -8.5571,-1.9421 -9.0171,-2.1657 -3.1879,-1.5502 3.7467,0.3957 9.0904,1.4393 11.875,2.3191 7.1551,2.2609 3.0698,1.8993 -8.6871,-0.7689 z m -54.0625,-3.2458 c 1.2031,-0.3144 3.1719,-0.3144 4.375,0 1.2031,0.3145 0.2188,0.5717 -2.1875,0.5717 -2.4062,0 -3.3906,-0.2572 -2.1875,-0.5717 z m 35,0 c 1.2031,-0.3144 3.1719,-0.3144 4.375,0 1.2031,0.3145 0.2188,0.5717 -2.1875,0.5717 -2.4062,0 -3.3906,-0.2572 -2.1875,-0.5717 z"
         id="path4244"
         inkscape:connector-curvature="0" />
      <path
         style="fill:#01c4fd"
         d="m 3242.4296,2290.1814 c 0,-1.7187 0.2837,-2.4219 0.6305,-1.5625 0.3467,0.8594 0.3467,2.2656 0,3.125 -0.3468,0.8594 -0.6305,0.1563 -0.6305,-1.5625 z m 366.25,0 c 0,-1.7187 0.2837,-2.4219 0.6305,-1.5625 0.3467,0.8594 0.3467,2.2656 0,3.125 -0.3468,0.8594 -0.6305,0.1563 -0.6305,-1.5625 z m -312.4537,-8.125 c 0.026,-2.0625 0.3056,-2.7549 0.6225,-1.5387 0.317,1.2162 0.2961,2.9037 -0.046,3.75 -0.3424,0.8463 -0.6017,-0.1488 -0.5762,-2.2113 z m 258.7037,-0.625 c 0,-1.7187 0.2837,-2.4219 0.6305,-1.5625 0.3467,0.8594 0.3467,2.2656 0,3.125 -0.3468,0.8594 -0.6305,0.1563 -0.6305,-1.5625 z m 54.9013,-0.7292 c 0.06,-1.4562 0.3562,-1.7523 0.7552,-0.7552 0.3611,0.9024 0.3167,1.9805 -0.099,2.3959 -0.4154,0.4153 -0.7108,-0.323 -0.6566,-1.6407 z m -368.75,-22.5 c 0.06,-1.4562 0.3562,-1.7523 0.7552,-0.7552 0.3611,0.9024 0.3167,1.9805 -0.099,2.3959 -0.4154,0.4153 -0.7108,-0.323 -0.6565,-1.6407 z m 368.75,0 c 0.06,-1.4562 0.3562,-1.7523 0.7552,-0.7552 0.3611,0.9024 0.3167,1.9805 -0.099,2.3959 -0.4154,0.4153 -0.7108,-0.323 -0.6566,-1.6407 z m -313.5587,-3.0208 c 0,-2.4062 0.2572,-3.3906 0.5717,-2.1875 0.3144,1.2031 0.3144,3.1719 0,4.375 -0.3145,1.2031 -0.5717,0.2188 -0.5717,-2.1875 z m 258.75,0 c 0,-2.4062 0.2573,-3.3906 0.5717,-2.1875 0.3144,1.2031 0.3144,3.1719 0,4.375 -0.3144,1.2031 -0.5717,0.2188 -0.5717,-2.1875 z m -312.5,-6.25 c 0,-2.4062 0.2572,-3.3906 0.5717,-2.1875 0.3144,1.2031 0.3144,3.1719 0,4.375 -0.3145,1.2031 -0.5717,0.2188 -0.5717,-2.1875 z m 366.2037,-0.625 c 0.026,-2.0625 0.3056,-2.7549 0.6225,-1.5387 0.317,1.2162 0.2961,2.9037 -0.046,3.75 -0.3425,0.8463 -0.6017,-0.1488 -0.5763,-2.2113 z m -365.145,-8.8542 c 0.06,-1.4562 0.3562,-1.7523 0.7552,-0.7552 0.3611,0.9024 0.3167,1.9805 -0.099,2.3959 -0.4154,0.4153 -0.7108,-0.323 -0.6565,-1.6407 z m 363.75,0 c 0.06,-1.4562 0.3562,-1.7523 0.7552,-0.7552 0.3611,0.9024 0.3167,1.9805 -0.099,2.3959 -0.4154,0.4153 -0.7108,-0.323 -0.6566,-1.6407 z m -358.75,-22.5 c 0.06,-1.4562 0.3562,-1.7523 0.7552,-0.7552 0.3611,0.9024 0.3167,1.9805 -0.099,2.3959 -0.4154,0.4153 -0.7108,-0.323 -0.6565,-1.6407 z m 353.75,0 c 0.06,-1.4562 0.3562,-1.7523 0.7552,-0.7552 0.3611,0.9024 0.3167,1.9805 -0.099,2.3959 -0.4154,0.4153 -0.7108,-0.323 -0.6566,-1.6407 z m -295.0987,-2.5735 c 0,-0.6707 0.8748,-2.3114 1.944,-3.6459 1.8329,-2.2879 1.8589,-2.248 0.4556,0.6986 -1.8222,3.8263 -2.3996,4.5354 -2.3996,2.9473 z m 234.4554,-3.8309 c -0.6784,-1.7815 -0.5348,-1.9251 0.6997,-0.6997 0.8543,0.8479 1.2384,1.8565 0.8535,2.2414 -0.3849,0.3848 -1.0838,-0.3089 -1.5532,-1.5417 z m -286.7458,-11.6802 c 0.7312,-2.0976 1.5614,-3.5819 1.8449,-3.2984 0.619,0.6191 -1.7397,7.1122 -2.5835,7.1122 -0.325,0 0.01,-1.7162 0.7386,-3.8138 z m 59.7904,1.3138 c 0.7359,-1.375 1.6192,-2.5 1.963,-2.5 0.3437,0 0.023,1.125 -0.713,2.5 -0.7359,1.375 -1.6192,2.5 -1.963,2.5 -0.3437,0 -0.023,-1.125 0.713,-2.5 z m 281.1841,-0.7984 c -0.6897,-1.8141 -1.0221,-3.5303 -0.7386,-3.8138 0.2835,-0.2835 1.1137,1.2008 1.8449,3.2984 1.6256,4.6629 0.6443,5.12 -1.1063,0.5154 z m -274.9341,-8.4236 c 0,-0.2595 0.9844,-1.2439 2.1875,-2.1875 1.9826,-1.5548 2.0268,-1.5106 0.472,0.472 -1.633,2.0822 -2.6595,2.7443 -2.6595,1.7155 z m 207.3405,-1.7155 c -1.5548,-1.9826 -1.5106,-2.0268 0.472,-0.472 2.0822,1.633 2.7443,2.6595 1.7155,2.6595 -0.2595,0 -1.2439,-0.9844 -2.1875,-2.1875 z m -268.5462,-1.0111 c -0.024,-0.728 0.7136,-2.36 1.6399,-3.6268 1.383,-1.8914 1.8659,-1.9901 2.7004,-0.5515 0.5608,0.9669 0.5354,1.3142 -0.057,0.7752 -0.5902,-0.5372 -1.7854,0.3066 -2.6561,1.875 -0.8708,1.5684 -1.6031,2.2561 -1.6275,1.5281 z m 329.4611,-3.1655 c -2.7966,-5.6059 -2.4652,-6.2947 0.6716,-1.396 1.4492,2.2632 2.3421,4.4076 1.9843,4.7654 -0.3577,0.3578 -1.5529,-1.1585 -2.6559,-3.3694 z m -72.4854,-8.5661 c -5.3149,-5.4616 -10.0531,-10.0361 -10.5293,-10.1656 -0.4761,-0.1295 -3.9594,-2.3331 -7.7407,-4.8968 -14.0548,-9.5293 -32.8661,-17.2886 -48.75,-20.1085 -12.0194,-2.1338 -35.4657,-2.1355 -47.5,0 -16.7302,2.9641 -39.7486,12.7881 -52.1582,22.2605 -2.9499,2.2517 -6.2023,4.094 -7.2276,4.094 -1.0253,0 -1.7236,0.7031 -1.5517,1.5625 0.1719,0.8594 -0.4324,1.4079 -1.3429,1.219 -0.9105,-0.1889 -1.3232,0.1941 -0.9171,0.8512 0.406,0.657 0.05,1.6201 -0.7917,2.1401 -2.3921,1.4784 -7.2608,1.6917 -7.2608,0.3181 0,-0.6811 -0.5145,-0.9205 -1.1432,-0.5319 -0.6288,0.3886 -1.374,0.014 -1.656,-0.8315 -0.2819,-0.8459 -0.8398,-0.2869 -1.2397,1.2422 -0.4911,1.8782 -0.1694,2.7803 0.9917,2.7803 1.1075,0 1.435,0.778 0.921,2.1875 -0.7161,1.9638 -0.5204,1.944 1.9142,-0.1937 4.3447,-3.8149 3.1238,-0.3381 -1.3028,3.7098 -2.2081,2.0193 -3.3234,2.7583 -2.4784,1.6423 1.5919,-2.1024 0.7523,-6.5581 -1.0284,-5.4576 -0.5553,0.3432 -0.8604,-0.7356 -0.6779,-2.3973 0.2308,-2.1027 -0.1804,-2.8249 -1.3523,-2.3752 -0.9261,0.3554 -1.2979,1.2903 -0.8261,2.0777 0.5822,0.9715 0.2593,0.9475 -1.005,-0.075 -2.0276,-1.6395 -44.7659,-2.6013 -47.2543,-1.0634 -0.7495,0.4633 -1.3714,0.106 -1.3819,-0.794 -0.015,-1.2843 -0.2539,-1.2658 -1.1103,0.086 -0.6001,0.9474 -1.7165,1.3361 -2.4808,0.8637 -1.3352,-0.8252 -1.9069,0.6952 -1.4877,3.9562 0.115,0.8945 -0.5975,1.2371 -1.696,0.8156 -1.692,-0.6493 -1.6917,-1.1187 0,-4.3959 1.0436,-2.0179 2.4294,-3.3401 3.0798,-2.9382 0.6503,0.4019 0.8633,-0.101 0.4732,-1.1176 -0.4484,-1.1683 0.5917,-2.6011 2.8268,-3.8944 1.9448,-1.1254 2.5303,-1.7386 1.3009,-1.3626 -1.7829,0.5453 -1.5385,-0.2604 1.2083,-3.9829 29.4298,-39.884 67.3921,-64.1729 116.0269,-74.2357 19.5622,-4.0475 49.2254,-4.0436 68.75,0.01 50.1845,10.4168 89.4971,36.2246 118.3364,77.685 7.6341,10.975 8.4237,12.407 5.5583,10.0804 -1.8099,-1.4696 -2.3946,-1.4963 -3.2283,-0.1474 -0.7519,1.2165 -1.2582,0.8907 -1.9364,-1.246 -0.9113,-2.8713 -0.9313,-2.8654 -2.6243,0.7723 -0.9382,2.0161 -1.4364,2.5407 -1.1071,1.1657 0.5875,-2.4527 0.054,-2.4932 -28.2203,-2.1423 -26.4579,0.3284 -28.7807,0.5333 -28.3495,2.5 0.2583,1.1783 1.1551,1.9965 1.9927,1.8182 0.8377,-0.1783 1.8742,0.6655 2.3033,1.875 0.4291,1.2095 1.6256,3.1835 2.6589,4.3866 1.0333,1.2031 1.6079,2.1875 1.2768,2.1875 -0.3311,0 -4.9506,-4.4686 -10.2655,-9.9302 z m -236.9963,-5.7234 c 1.321,-1.5917 1.2437,-1.7746 -0.4719,-1.1163 -1.1285,0.4331 -2.0518,1.2897 -2.0518,1.9036 0,1.6075 0.7236,1.3817 2.5237,-0.7873 z m 298.0203,-1.7154 c 0.3804,-0.6155 -0.1202,-1.4306 -1.1125,-1.8114 -1.2035,-0.4618 -1.5728,-0.089 -1.1091,1.1191 0.8058,2.0997 1.2636,2.2424 2.2216,0.6923 z m -61.1778,-1.3667 c 0.4379,-0.7086 -0.064,-0.9181 -1.1763,-0.4912 -2.1655,0.8309 -2.5617,1.7269 -0.7637,1.7269 0.647,0 1.5199,-0.5561 1.94,-1.2357 z m -245.9547,11.7305 c -1.5819,-1.5819 -0.9914,-2.7853 1.2082,-2.4625 1.1659,0.1711 2.3337,1.1057 2.5952,2.0769 0.3957,1.4698 0.2753,1.4802 -0.7184,0.062 -0.8548,-1.22 -1.333,-1.2866 -1.6837,-0.2344 -0.2694,0.8083 -0.9,1.0594 -1.4013,0.5581 z m 312.8385,0.2639 c 0,-0.2702 0.873,-0.8262 1.9399,-1.2357 1.1124,-0.4268 1.6142,-0.2173 1.1763,0.4913 -0.7341,1.1878 -3.1162,1.7568 -3.1162,0.7444 z m -60.5336,-3.1109 c -0.2949,-0.4771 0.8295,-0.9805 2.4987,-1.1186 1.6692,-0.1382 3.0349,-0.042 3.0349,0.214 0,0.9292 -5.0121,1.7486 -5.5336,0.9046 z"
         id="path4242"
         inkscape:connector-curvature="0" />
      <path
         style="fill:#5194d0"
         d="m 3449.4978,2451.8275 c 0.9024,-0.3611 1.9805,-0.3167 2.3959,0.099 0.4153,0.4154 -0.323,0.7108 -1.6407,0.6566 -1.4562,-0.06 -1.7523,-0.3562 -0.7552,-0.7552 z m -154.7656,-52.2711 c -3.0363,-3.0937 -5.2393,-5.625 -4.8955,-5.625 0.3437,0 3.1092,2.5313 6.1455,5.625 3.0363,3.0938 5.2393,5.625 4.8955,5.625 -0.3437,0 -3.1092,-2.5312 -6.1455,-5.625 z m 261.1978,0.3125 c 5.1799,-5.519 6.3022,-6.5114 6.3022,-5.5728 0,0.2006 -2.6719,2.8725 -5.9375,5.9375 l -5.9375,5.5728 5.5728,-5.9375 z m -136.8228,-25.5388 c 1.375,-0.3783 2.9647,-1.326 3.5327,-2.1058 0.6823,-0.9369 0.8611,-0.7818 0.527,0.4571 -0.278,1.0313 -1.8677,1.9789 -3.5326,2.1058 -2.3869,0.182 -2.4984,0.085 -0.5271,-0.4571 z m -9.2763,-6.1279 c 0.06,-1.4562 0.3562,-1.7523 0.7552,-0.7552 0.3611,0.9024 0.3167,1.9805 -0.099,2.3959 -0.4154,0.4153 -0.7108,-0.323 -0.6566,-1.6407 z m -2.5,-1.25 c 0.06,-1.4562 0.3562,-1.7523 0.7552,-0.7552 0.3611,0.9024 0.3167,1.9805 -0.099,2.3959 -0.4154,0.4153 -0.7108,-0.323 -0.6566,-1.6407 z m 34.5728,-3.927 c 1.1104,-0.7874 1.2232,-2.2243 0.3998,-5.0952 -0.7039,-2.4542 -0.6977,-3.9986 0.016,-3.9986 0.6395,0 1.2471,1.4063 1.3502,3.125 0.1032,1.7188 0.2438,3.7813 0.3125,4.5833 0.069,0.8021 -0.7187,1.6887 -1.75,1.9702 -1.3716,0.3744 -1.4597,0.2174 -0.3284,-0.5847 z m -12.1715,-2.0658 c 0,-0.2595 0.9844,-1.2439 2.1875,-2.1875 1.9826,-1.5548 2.0268,-1.5106 0.472,0.472 -1.633,2.0822 -2.6595,2.7443 -2.6595,1.7155 z m -16.875,-4.528 c 1.2444,-1.375 2.5437,-2.5 2.8875,-2.5 0.3437,0 -0.3931,1.125 -1.6375,2.5 -1.2444,1.375 -2.5437,2.5 -2.8875,2.5 -0.3437,0 0.3931,-1.125 1.6375,-2.5 z m 56.875,-25.625 c 2.3322,-2.4062 4.5217,-4.375 4.8654,-4.375 0.3438,0 -1.2832,1.9688 -3.6154,4.375 -2.3322,2.4063 -4.5217,4.375 -4.8654,4.375 -0.3438,0 1.2832,-1.9687 3.6154,-4.375 z m -14.375,-13.1631 c -1.375,-0.5359 -3.7656,-0.6856 -5.3125,-0.3326 -1.611,0.3676 -2.8125,0.05 -2.8125,-0.7438 0,-1.6754 7.3899,-1.8121 9.9638,-0.1843 2.5111,1.588 1.239,2.4602 -1.8388,1.2607 z m 30.6238,-3.0856 c 1.669,-1.7766 2.3912,-3.5966 1.8238,-4.5963 -0.741,-1.3056 -0.5951,-1.3363 0.691,-0.1455 1.1778,1.0905 1.2583,1.958 0.2897,3.125 -0.7374,0.8885 -1.2479,2.1244 -1.1345,2.7463 0.1134,0.622 -0.8377,1.2841 -2.1135,1.4713 -2.0925,0.3072 -2.0491,0.052 0.4435,-2.6008 z m -51.0514,-5.6263 c 0,-1.7187 0.2837,-2.4219 0.6305,-1.5625 0.3467,0.8594 0.3467,2.2656 0,3.125 -0.3468,0.8594 -0.6305,0.1563 -0.6305,-1.5625 z m -5.1347,-18.0494 c -0.8213,-0.9897 -1.2557,-3.3803 -0.9653,-5.3125 0.4968,-3.3053 0.5391,-3.2685 0.7153,0.6232 0.103,2.2749 0.6561,3.8465 1.229,3.4925 0.5729,-0.3541 1.0416,0.1752 1.0416,1.1762 0,2.2572 -0.163,2.2589 -2.0206,0.021 z m 16.2673,-11.4109 c 15.1297,-15.8652 23.201,-31.5356 26.0965,-50.6659 4.403,-29.0898 -11.9203,-52.3738 -36.7167,-52.3738 -12.9658,0 -31.6209,8.118 -42.1582,18.3455 -2.5153,2.4414 -5.3211,4.1897 -6.2351,3.885 -2.4408,-0.8136 15.8295,-18.2474 24.5921,-23.4662 25.7173,-15.3164 51.71,-12.7837 63.6981,6.2067 6.8058,10.7811 8.8324,29.708 4.9554,46.279 -4.5115,19.2828 -20.0483,43.4342 -35.7472,55.5677 l -7.9399,6.1366 9.455,-9.9146 z m -36.9941,-19.6022 -7.4609,-7.8125 7.8125,7.4609 c 4.2969,4.1035 7.8125,7.6191 7.8125,7.8125 0,0.9236 -1.2336,-0.2038 -8.1641,-7.4609 z m 23.0046,-15.625 c -1.5548,-1.9826 -1.5106,-2.0268 0.472,-0.472 1.2031,0.9436 2.1875,1.928 2.1875,2.1875 0,1.0288 -1.0265,0.3667 -2.6595,-1.7155 z m -29.5905,-5.5625 c -0.825,-0.825 -1.5,-0.9987 -1.5,-0.3861 0,0.6127 -0.7812,0.046 -1.7359,-1.2601 -2.5366,-3.469 -1.3421,-4.9788 3.939,-4.9788 4.4061,0 6.4091,1.1795 4.7761,2.8125 -0.4011,0.401 -0.7292,0.1217 -0.7292,-0.6206 0,-0.9589 -1.0605,-0.9495 -3.6623,0.033 -3.6125,1.3636 -3.6253,1.4019 -0.9375,2.815 1.4986,0.788 3.25,1.145 3.8918,0.7935 0.6419,-0.3516 0.079,-1.0652 -1.25,-1.5858 -2.1594,-0.8456 -2.1797,-0.9558 -0.1903,-1.0343 1.2247,-0.048 2.549,0.7519 2.9429,1.7782 0.4995,1.3018 1.678,1.6247 3.8972,1.0677 2.2239,-0.5582 2.9147,-0.3674 2.2959,0.6339 -1.1695,1.8923 -9.8276,1.8424 -11.7377,-0.068 z m 6.594,-3.4499 c 0.442,-0.715 2.1297,-1.3001 3.7506,-1.3001 1.6209,0 3.1453,-0.5947 3.3876,-1.3215 0.4831,-1.4495 4.7678,-0.2619 4.7678,1.3215 0,0.5404 -0.8151,1.2953 -1.8113,1.6776 -1.2949,0.4969 -1.5846,0.09 -1.016,-1.4288 0.6362,-1.6987 0.4358,-1.8455 -1.0012,-0.7337 -2.5604,1.9812 -9.0906,3.4243 -8.0775,1.785 z m 0.656,-3.6478 c 0,-0.6222 1.5412,-1.5181 3.425,-1.9909 1.8837,-0.4728 3.792,-1.4535 4.2406,-2.1794 0.4758,-0.7699 1.4562,-0.077 2.3531,1.6616 1.2116,2.3498 1.2123,2.6755 0,1.5376 -1.1633,-1.0946 -2.5609,-1.015 -5.7781,0.3292 -2.3334,0.9753 -4.2431,1.2641 -4.2431,0.6419 z m 11.25,-3.0434 c 0,-0.2152 1.8281,-2.0433 4.0625,-4.0625 l 4.0625,-3.6714 -3.6714,4.0625 c -3.4222,3.7868 -4.4536,4.6371 -4.4536,3.6714 z m -44.375,-15.8589 c 1.0666,-2.0625 2.2205,-3.75 2.5642,-3.75 0.3437,0 -0.2476,1.6875 -1.3142,3.75 -1.0666,2.0625 -2.2205,3.75 -2.5642,3.75 -0.3437,0 0.2476,-1.6875 1.3142,-3.75 z m 65.625,-3.75 c -1.1266,-0.7281 -1.2808,-1.2194 -0.3863,-1.2309 0.8188,-0.01 1.8364,0.5434 2.2613,1.2309 0.9591,1.5519 0.5264,1.5519 -1.875,0 z m -58.9844,-0.8539 c 0.9024,-0.3611 1.9805,-0.3167 2.3959,0.099 0.4153,0.4154 -0.323,0.7108 -1.6407,0.6566 -1.4562,-0.06 -1.7523,-0.3562 -0.7552,-0.7552 z m 54.6808,-0.2807 c -0.3857,-0.624 -0.1796,-2.4521 0.458,-4.0625 1.0532,-2.66 1.1392,-2.5564 0.9399,1.1321 -0.2381,4.4075 -0.3457,4.633 -1.3979,2.9304 z m -76.9464,-3.7179 c 0,-0.6875 0.5625,-1.5976 1.25,-2.0225 0.6875,-0.4249 1.25,-0.21 1.25,0.4775 0,0.6875 -0.5625,1.5976 -1.25,2.0225 -0.6875,0.4249 -1.25,0.21 -1.25,-0.4775 z m 19.7656,-1.0014 c 0.9024,-0.3611 1.9805,-0.3167 2.3959,0.099 0.4153,0.4154 -0.323,0.7108 -1.6407,0.6566 -1.4562,-0.06 -1.7523,-0.3562 -0.7552,-0.7552 z m 7.5,-1.25 c 0.9024,-0.3611 1.9805,-0.3167 2.3959,0.099 0.4153,0.4154 -0.323,0.7108 -1.6407,0.6566 -1.4562,-0.06 -1.7523,-0.3562 -0.7552,-0.7552 z m 46.4657,-2.9311 c -0.7462,-1.3943 -1.9779,-2.1511 -2.7371,-1.6819 -0.8398,0.519 -1.0262,0.28 -0.476,-0.6103 0.4975,-0.805 1.4252,-1.1418 2.0615,-0.7486 1.3768,0.851 4.0319,5.5758 3.1333,5.5758 -0.3438,0 -1.2356,-1.1407 -1.9817,-2.535 z m -11.7649,0.1828 c -0.2949,-0.4771 0.8295,-0.9805 2.4987,-1.1186 1.6692,-0.1382 3.0349,-0.042 3.0349,0.214 0,0.9292 -5.0121,1.7486 -5.5336,0.9046 z m 19.0492,0.2483 c 0.9024,-0.3611 1.9805,-0.3167 2.3959,0.099 0.4153,0.4154 -0.323,0.7108 -1.6407,0.6566 -1.4562,-0.06 -1.7523,-0.3562 -0.7552,-0.7552 z m -2.5,-10 c 0.9024,-0.3611 1.9805,-0.3167 2.3959,0.099 0.4153,0.4154 -0.323,0.7108 -1.6407,0.6566 -1.4562,-0.06 -1.7523,-0.3562 -0.7552,-0.7552 z"
         id="path4240"
         inkscape:connector-curvature="0" />
      <path
         style="fill:#00b7fd"
         d="m 3393.3227,2397.9939 c -1.5548,-1.9826 -1.5106,-2.0268 0.472,-0.472 1.2031,0.9436 2.1875,1.928 2.1875,2.1875 0,1.0288 -1.0265,0.3667 -2.6595,-1.7155 z m -59.3343,-36.875 -2.3812,-2.8125 2.8125,2.3812 c 2.6431,2.2378 3.3816,3.2438 2.3812,3.2438 -0.2372,0 -1.5028,-1.2656 -2.8125,-2.8125 z m 219.3453,-66.2107 c 0.5754,-3.4712 0.7515,-3.6472 1.1451,-1.1451 0.2558,1.6261 -0.05,3.4719 -0.68,4.1017 -0.6935,0.6935 -0.877,-0.4726 -0.4651,-2.9566 z m -256.0028,-1.081 c -0.054,-1.776 -0.5206,-3.651 -1.0362,-4.1666 -0.9786,-0.9787 -1.1479,-1.6572 -1.4062,-5.6359 -0.1486,-2.2881 -1.428,-2.4134 -25.9702,-2.5432 -23.0719,-0.122 -25.6448,0.067 -24.222,1.7817 1.2346,1.4875 1.247,1.9182 0.055,1.9182 -0.9475,0 -1.2175,0.8388 -0.704,2.1875 0.6573,1.7265 0.5088,1.8659 -0.7049,0.6614 -2.3336,-2.3161 -2.0945,-27.2291 0.4296,-44.7632 2.0727,-14.3985 6.6005,-31.9888 10.286,-39.9607 0.9536,-2.0625 3.2546,-7.2544 5.1134,-11.5377 1.9164,-4.4157 3.9355,-7.4441 4.6633,-6.9943 0.706,0.4363 0.9136,0.1946 0.4614,-0.5371 -1.2772,-2.0664 0.5526,-5.5286 2.5224,-4.7727 0.9703,0.3723 1.6747,-0.017 1.5656,-0.8657 -0.4192,-3.2609 0.1525,-4.7813 1.4876,-3.9561 0.7644,0.4724 1.8808,0.084 2.4809,-0.8637 0.8564,-1.3522 1.0952,-1.3708 1.1103,-0.086 0.01,0.8999 0.6324,1.2572 1.3819,0.794 2.4884,-1.5379 45.2267,-0.5761 47.2543,1.0634 1.2642,1.0223 1.5872,1.0463 1.005,0.075 -0.4718,-0.7873 -0.1,-1.7223 0.8261,-2.0776 1.1719,-0.4497 1.5831,0.2725 1.3522,2.3751 -0.1824,1.6618 0.1227,2.7406 0.678,2.3974 0.5553,-0.3432 1.355,0.2759 1.777,1.3758 0.4898,1.2764 -1.6409,5.2301 -5.8906,10.9303 -12.2232,16.3955 -18.8735,31.1647 -23.1579,51.4306 -3.0422,14.3897 -3.7483,36.8257 -1.4434,45.8619 0.8224,3.224 1.2002,6.599 0.8395,7.5 -0.3606,0.9009 -0.7,0.1849 -0.7543,-1.5911 z m -23.6022,-114.7247 c 0.9937,1.4183 1.1141,1.4079 0.7184,-0.062 -0.4893,-1.8171 -4.7149,-3.1229 -4.7149,-1.4569 0,1.7467 1.8215,2.7583 2.3128,1.2844 0.3507,-1.0522 0.8289,-0.9856 1.6837,0.2344 z m 281.0035,108.0277 c 0,-1.6782 0.4607,-3.336 1.0238,-3.684 0.5631,-0.348 0.7805,1.025 0.4831,3.0512 -0.6556,4.4674 -1.5069,4.8248 -1.5069,0.6328 z m 50.0702,-0.4628 c -1.2251,-2.7244 -1.2092,-3.065 0.084,-1.7985 2.3847,2.3351 4.1638,1.8856 2.1862,-0.5525 -1.1657,-1.437 -1.2148,-1.814 -0.1531,-1.1762 0.8594,0.5163 1.5625,0.343 1.5625,-0.385 0,-0.8813 -7.3123,-1.3238 -21.875,-1.3238 -21.7031,0 -22.6373,0.1723 -22.023,4.0625 0.081,0.5156 -0.4145,0.9375 -1.102,0.9375 -0.6875,0 -1.25,-1.125 -1.25,-2.5 0,-1.375 -0.5957,-2.5 -1.3238,-2.5 -0.728,0 -1.0155,0.4988 -0.6387,1.1084 0.3767,0.6096 -0.1083,1.7667 -1.0779,2.5714 -1.4404,1.1955 -1.6399,0.9927 -1.0905,-1.1084 0.3822,-1.4614 0.07,-2.5714 -0.7233,-2.5714 -0.942,0 -1.3958,-4.4093 -1.3958,-13.5606 0,-27.6065 -8.4555,-53.0888 -25.4928,-76.8278 -3.854,-5.37 -7.0072,-10.2586 -7.0072,-10.8638 0,-0.6051 -0.6494,-1.5016 -1.4431,-1.9922 -0.9796,-0.6054 -1.1033,-0.328 -0.3851,0.8638 0.9012,1.4952 0.7444,1.5012 -1.0568,0.04 -1.1633,-0.9436 -2.115,-2.4703 -2.115,-3.3927 0,-1.3439 5.7107,-1.7482 28.7362,-2.0345 28.1915,-0.3505 28.7249,-0.3099 28.1374,2.1427 -0.3293,1.375 0.1689,0.8504 1.1071,-1.1657 1.693,-3.6377 1.713,-3.6436 2.6243,-0.7723 0.6483,2.0425 1.2046,2.4301 1.8919,1.318 1.5169,-2.4543 3.6265,-0.3558 6.9528,6.9162 1.6821,3.6774 3.5567,6.9943 4.1659,7.3707 0.6091,0.3765 1.49,2.2367 1.9576,4.1338 0.4676,1.8971 1.9058,5.6993 3.1961,8.4493 7.6705,16.3487 14.6035,55.2588 13.215,74.1671 -0.873,11.8876 -3.1373,16.0629 -5.6641,10.4439 z m -76.3202,-110.9928 c 0,-0.2559 -1.3657,-0.3522 -3.0349,-0.214 -1.6692,0.1381 -2.7936,0.6415 -2.4987,1.1186 0.5215,0.844 5.5336,0.025 5.5336,-0.9046 z m -199.6378,2.8659 c 0.5175,-1.3486 0.1896,-2.1091 -0.9094,-2.1091 -1.1611,0 -1.4828,-0.9021 -0.9917,-2.7803 0.3999,-1.5291 0.9578,-2.0881 1.2397,-1.2422 0.282,0.8459 1.0272,1.2201 1.656,0.8315 0.6287,-0.3886 1.1432,-0.1109 1.1432,0.6172 0,1.9241 2.0236,1.6216 4.2857,-0.6405 1.0804,-1.0803 1.9643,-1.4284 1.9643,-0.7733 0,0.655 -2.0694,2.7693 -4.5986,4.6984 -3.2336,2.4664 -4.3584,2.8815 -3.7892,1.3983 z m -51.6122,-6.9754 c 0,-0.6139 0.9233,-1.4705 2.0518,-1.9036 1.7156,-0.6583 1.7929,-0.4754 0.4719,1.1163 -1.8001,2.169 -2.5237,2.3948 -2.5237,0.7873 z m 298.3224,-3.195 c -0.4637,-1.2083 -0.094,-1.5809 1.1091,-1.1191 0.9923,0.3808 1.4929,1.1959 1.1125,1.8114 -0.958,1.5501 -1.4158,1.4074 -2.2216,-0.6923 z m -62.0724,0.07 c 0,-0.2702 0.873,-0.8262 1.9399,-1.2356 1.1124,-0.4269 1.6142,-0.2174 1.1763,0.4912 -0.7341,1.1878 -3.1162,1.7568 -3.1162,0.7444 z m -240.3333,-2.1638 c 0.8479,-0.8543 1.8565,-1.2383 2.2414,-0.8535 0.3848,0.3849 -0.3089,1.0838 -1.5417,1.5532 -1.7815,0.6784 -1.9251,0.5348 -0.6997,-0.6997 z"
         id="path4238"
         inkscape:connector-curvature="0" />
      <path
         style="fill:#00a6fd"
         d="m 3415.7478,2453.0775 c 0.9024,-0.3611 1.9805,-0.3167 2.3959,0.099 0.4153,0.4154 -0.323,0.7108 -1.6407,0.6566 -1.4562,-0.06 -1.7523,-0.3562 -0.7552,-0.7552 z m 18.75,0 c 0.9024,-0.3611 1.9805,-0.3167 2.3959,0.099 0.4153,0.4154 -0.323,0.7108 -1.6407,0.6566 -1.4562,-0.06 -1.7523,-0.3562 -0.7552,-0.7552 z m -28.8281,-1.224 c 0.8594,-0.3467 2.2656,-0.3467 3.125,0 0.8594,0.3468 0.1563,0.6305 -1.5625,0.6305 -1.7187,0 -2.4219,-0.2837 -1.5625,-0.6305 z m 37.5,0 c 0.8594,-0.3467 2.2656,-0.3467 3.125,0 0.8594,0.3468 0.1563,0.6305 -1.5625,0.6305 -1.7187,0 -2.4219,-0.2837 -1.5625,-0.6305 z m 49.9792,-11.8272 c 0.8479,-0.8543 1.8565,-1.2383 2.2414,-0.8535 0.3848,0.3849 -0.3089,1.0838 -1.5417,1.5532 -1.7815,0.6784 -1.9251,0.5348 -0.6997,-0.6997 z m 35.3333,-17.8169 c 0,-0.2595 0.9844,-1.2439 2.1875,-2.1875 1.9826,-1.5548 2.0268,-1.5106 0.472,0.472 -1.633,2.0822 -2.6595,2.7443 -2.6595,1.7155 z m -56.5833,-12.1831 c 0.8479,-0.8543 1.8565,-1.2383 2.2414,-0.8535 0.3848,0.3849 -0.3089,1.0838 -1.5417,1.5532 -1.7815,0.6784 -1.9251,0.5348 -0.6997,-0.6997 z m -168.5761,-3.2824 c -1.5549,-1.9826 -1.5107,-2.0268 0.4719,-0.472 1.2031,0.9436 2.1875,1.928 2.1875,2.1875 0,1.0288 -1.0265,0.3667 -2.6594,-1.7155 z m 242.6594,1.7155 c 0,-0.2595 0.9844,-1.2439 2.1875,-2.1875 1.9826,-1.5548 2.0268,-1.5106 0.472,0.472 -1.633,2.0822 -2.6595,2.7443 -2.6595,1.7155 z m -247.3271,-6.1947 c -1.0336,-1.2454 -0.967,-1.6666 0.2636,-1.6666 0.9058,0 1.6468,0.75 1.6468,1.6666 0,0.9167 -0.1186,1.6667 -0.2636,1.6667 -0.145,0 -0.886,-0.75 -1.6468,-1.6667 z m 252.3271,1.1947 c 0,-0.2595 0.9844,-1.2439 2.1875,-2.1875 1.9826,-1.5548 2.0268,-1.5106 0.472,0.472 -1.633,2.0822 -2.6595,2.7443 -2.6595,1.7155 z m -61.7627,-3.1539 c -1.5042,-1.6621 -1.7251,-2.6386 -0.7356,-3.2502 0.7781,-0.4808 1.7522,-0.5367 2.1648,-0.1241 0.4126,0.4126 0.01,0.7502 -0.9019,0.7502 -1.166,0 -0.9864,0.7356 0.6104,2.5 1.2444,1.375 1.9812,2.5 1.6375,2.5 -0.3438,0 -1.5926,-1.0692 -2.7752,-2.3759 z m -98.2373,-2.6241 c -1.1266,-0.7281 -1.2808,-1.2194 -0.3863,-1.2309 0.8188,-0.01 1.8364,0.5434 2.2613,1.2309 0.9591,1.5519 0.5264,1.5519 -1.875,0 z m -101.0675,-4.1867 c -3.8222,-3.9435 -4.5899,-6.7421 -2.3108,-8.4236 0.5481,-0.4045 0.1763,-1.4162 -0.8262,-2.2482 -1.4192,-1.1778 -2.0288,-1.1798 -2.7524,-0.01 -0.5708,0.9237 -0.4018,1.1778 0.4381,0.6587 0.8345,-0.5157 1.2933,0.1398 1.1771,1.6819 -0.1047,1.3898 -0.2739,2.527 -0.376,2.527 -0.1022,0 -3.2954,-4.0782 -7.0961,-9.0625 -7.5685,-9.9258 -16.7476,-25.8951 -21.6878,-37.7312 -8.4,-20.1258 -15.7566,-55.7066 -11.5177,-55.7066 0.818,0 0.716,-0.7343 -0.2666,-1.9182 -1.4228,-1.7145 1.1501,-1.9037 24.222,-1.7817 24.5422,0.1298 25.8216,0.2551 25.9702,2.5432 0.1658,2.5541 0.3032,3.1864 1.3376,6.1567 1.3049,3.7466 3.3713,10.7496 4.7949,16.25 6.4916,25.081 28.9581,55.1941 52.2251,70 4.8617,3.0938 8.9169,6.4688 9.0114,7.5 0.1078,1.174 0.397,1.3232 0.7737,0.3991 0.4224,-1.0364 1.8821,-0.7204 4.9013,1.061 2.3648,1.3952 4.2997,2.7957 4.2997,3.1121 0,0.3165 -0.5625,0.2277 -1.25,-0.1972 -0.6875,-0.4249 -1.25,-0.157 -1.25,0.5952 0,0.9804 -0.708,0.9888 -2.5,0.03 -1.375,-0.7359 -2.5,-0.9498 -2.5,-0.4753 0,0.4745 -1.2559,-0.2088 -2.791,-1.5185 -2.4082,-2.0547 -2.5526,-2.074 -1.0529,-0.1408 1.4271,1.8398 1.4463,2.5105 0.1076,3.75 -1.046,0.9685 -1.3459,1.0008 -0.8366,0.09 1.2174,-2.1771 -2.2024,-2.3589 -37.1712,-1.976 -28.2602,0.3094 -32.0684,0.5792 -30,2.1253 2.2233,1.662 2.1768,1.723 -0.7558,0.9914 -2.7957,-0.6975 -2.9455,-0.5607 -1.4209,1.2984 0.9373,1.1429 2.2898,1.716 3.0056,1.2736 0.7187,-0.4442 0.9317,-0.206 0.4756,0.532 -0.4543,0.735 -0.1193,1.6213 0.7444,1.9695 0.8636,0.3482 0.9775,0.6774 0.253,0.7317 -0.7246,0.054 -3.1434,-1.7853 -5.3753,-4.088 z m 1.9008,-7.6333 c 0,-1.001 -0.4779,-1.5246 -1.062,-1.1636 -0.5842,0.361 -0.7385,1.18 -0.3429,1.82 1.0108,1.6354 1.4049,1.4513 1.4049,-0.6564 z m 65.4167,0.019 c 0,-0.3032 -0.5625,-0.8989 -1.25,-1.3238 -0.6875,-0.4249 -1.25,-0.1768 -1.25,0.5512 0,0.7281 0.5625,1.3238 1.25,1.3238 0.6875,0 1.25,-0.2481 1.25,-0.5512 z m 1.9944,-3.3919 c 0.5526,-0.8942 0.3429,-1.1039 -0.5513,-0.5513 -0.7937,0.4906 -1.4431,0.2025 -1.4431,-0.6402 0,-0.8426 -0.3376,-1.1945 -0.7502,-0.7819 -0.715,0.7151 0.3723,3.4165 1.3752,3.4165 0.2626,0 0.8788,-0.6494 1.3694,-1.4431 z m -56.316,14.0295 c -0.3956,-0.64 -0.2064,-1.4805 0.4202,-1.8678 0.6267,-0.3874 1.462,0.1363 1.8562,1.1636 0.7771,2.0251 -1.101,2.6061 -2.2764,0.7042 z m 189.5158,-0.4773 c -1.0495,-1.2647 0.8749,-3.8434 8.3927,-11.246 5.365,-5.2827 10.2179,-9.1849 10.7842,-8.6715 0.5664,0.5133 0.7118,0.3706 0.3233,-0.3172 -0.3885,-0.6879 0.6857,-2.9379 2.3872,-5 19.1252,-23.179 32.3263,-46.3927 36.7897,-64.6936 0.8794,-3.6057 1.9926,-7.1183 2.4739,-7.8058 0.9031,-1.2903 3.0519,-14.2726 2.6379,-15.9375 -0.1282,-0.5156 0.395,-0.9375 1.1627,-0.9375 0.7933,0 1.1055,1.11 0.7233,2.5714 -0.5494,2.1011 -0.3499,2.3039 1.0905,1.1084 0.9696,-0.8047 1.4546,-1.9618 1.0779,-2.5714 -0.3768,-0.6096 -0.089,-1.1084 0.6387,-1.1084 0.7281,0 1.3238,1.125 1.3238,2.5 0,1.375 0.5625,2.5 1.25,2.5 0.6875,0 1.1834,-0.4219 1.102,-0.9375 -0.6143,-3.8902 0.3199,-4.0625 22.023,-4.0625 14.5627,0 21.875,0.4425 21.875,1.3238 0,0.728 -0.7031,0.9013 -1.5625,0.385 -1.0617,-0.6378 -1.0126,-0.2608 0.153,1.1762 1.9777,2.4381 0.1985,2.8876 -2.1861,0.5525 -1.2938,-1.267 -1.3001,-0.9057 -0.033,1.9105 1.1203,2.49 1.8495,3.0207 2.5765,1.875 2.71,-4.2705 -1.1323,20.5055 -5.1801,33.402 -7.1237,22.6967 -21.9968,51.4892 -29.8916,57.8663 -1.1005,0.889 -2.0713,2.1546 -2.1572,2.8125 -0.086,0.6579 -0.2266,1.4635 -0.3125,1.7903 -0.086,0.3267 -1.5793,0.053 -3.3186,-0.6083 -2.7413,-1.0422 -3.3159,-0.7982 -4.3162,1.8327 -0.6346,1.6692 -2.1647,3.037 -3.4002,3.0394 -36.2361,0.071 -47.2256,-0.046 -47.6876,-0.5076 -0.3088,-0.3088 -1.3619,0.4142 -2.3402,1.6066 -0.9784,1.1925 -1.4227,1.465 -0.9874,0.6056 0.56,-1.1056 -0.5095,-1.5625 -3.6573,-1.5625 -2.4468,0 -4.4488,0.5957 -4.4488,1.3238 0,0.7281 0.6495,0.9224 1.4432,0.4318 0.8511,-0.526 1.1054,-0.3455 0.62,0.4399 -0.4527,0.7325 -1.8052,1.1737 -3.0056,0.9805 -1.2004,-0.1932 -3.2032,0.1773 -4.4508,0.8235 -1.8027,0.9338 -1.9637,1.5417 -0.7844,2.9627 0.8161,0.9833 1.2025,1.7878 0.8588,1.7878 -0.3438,0 -1.2379,-0.7384 -1.9869,-1.6409 z m 6.5327,-6.549 c 0.4269,-1.1124 0.2174,-1.6142 -0.4912,-1.1763 -0.6796,0.4201 -1.2357,1.293 -1.2357,1.94 0,1.798 0.896,1.4018 1.7269,-0.7637 z m 60.7731,-3.0601 c -1.0312,-0.6665 -2.4375,-1.2117 -3.125,-1.2117 -0.6875,0 -0.4062,0.5452 0.625,1.2117 1.0313,0.6665 2.4375,1.2117 3.125,1.2117 0.6875,0 0.4063,-0.5452 -0.625,-1.2117 z m -11.941,10.1068 c 0.3886,-0.6288 0,-1.4152 -0.8637,-1.7476 -0.8637,-0.3324 -0.3333,-0.5442 1.1785,-0.4706 2.0981,0.1021 2.4317,0.5158 1.4094,1.7476 -1.5315,1.8454 -2.7854,2.1876 -1.7242,0.4706 z m 11.2424,-2.0215 c 1.3345,-1.0094 1.9968,-1.8353 1.4718,-1.8353 -0.5251,0 0.2035,-1.4724 1.619,-3.2719 1.4156,-1.7996 2.2709,-3.7619 1.9008,-4.3607 -0.37,-0.5988 0.2001,-0.7538 1.2671,-0.3444 1.0669,0.4095 1.9399,1.2272 1.9399,1.8172 0,1.728 -7.6233,9.9136 -9.192,9.8701 -0.7881,-0.022 -0.3411,-0.8657 0.9934,-1.875 z m -203.0514,-1.7007 c 0,-0.8427 -0.5561,-1.1885 -1.2357,-0.7685 -0.7261,0.4488 -0.907,-0.093 -0.4387,-1.313 0.7399,-1.9282 0.8812,-1.9262 1.9752,0.029 0.6481,1.158 0.8456,2.4384 0.4388,2.8451 -0.4068,0.4068 -0.7396,0.05 -0.7396,-0.7925 z m 21.2771,-1.9063 c 0.6922,-0.6955 2.2641,-0.6409 3.9946,0.1387 2.6564,1.1967 2.5776,1.2758 -1.1413,1.1467 -2.419,-0.084 -3.5445,-0.591 -2.8533,-1.2854 z"
         id="path4236"
         inkscape:connector-curvature="0" />
      <path
         style="fill:#009cfd"
         d="m 3417.2322,2453.2446 c -1.0312,-0.2182 -4.0964,-0.7619 -6.8114,-1.2083 l -4.9364,-0.8116 9.3114,-4.8843 c 5.1213,-2.6864 11.2802,-5.8837 13.6864,-7.1051 2.4063,-1.2215 6.0625,-3.2944 8.125,-4.6066 2.0625,-1.3123 6.2813,-3.9529 9.375,-5.8681 9.7021,-6.0061 28.904,-19.6981 34.821,-24.8292 6.3485,-5.5053 6.3036,-5.4909 9.265,-2.985 l 2.789,2.36 -2.3812,-2.8125 c -1.4658,-1.7312 -1.7979,-2.8125 -0.8638,-2.8125 0.8347,0 1.2337,-0.4593 0.8868,-1.0206 -0.8756,-1.4168 5.6252,-4.9896 8.2907,-4.5566 1.2004,0.195 2.553,-0.2448 3.0057,-0.9773 0.4854,-0.7854 0.231,-0.9659 -0.6201,-0.4399 -0.8084,0.4997 -1.4515,0.1723 -1.4622,-0.7443 -0.014,-1.2025 -0.3707,-1.1393 -1.3452,0.2387 -0.8782,1.2418 -1.1778,1.3156 -0.8871,0.2188 0.2414,-0.911 0.8467,-1.6141 1.3452,-1.5625 0.4984,0.052 2.9081,0.094 5.355,0.094 3.1478,0 4.2173,0.4569 3.6573,1.5625 -0.4353,0.8594 0.01,0.5869 0.9873,-0.6056 0.9783,-1.1924 2.0314,-1.9154 2.3402,-1.6066 0.462,0.462 11.4515,0.579 47.6877,0.5076 1.2354,0 2.7515,-1.3331 3.3689,-2.9571 0.8267,-2.1745 1.7995,-2.7756 3.6912,-2.2809 1.4127,0.3694 2.5686,1.1509 2.5686,1.7367 0,0.5857 -0.8006,0.7577 -1.7791,0.3822 -1.9459,-0.7467 -4.9468,3.6187 -3.4894,5.076 0.4914,0.4915 0.331,0.706 -0.3565,0.4769 -0.6875,-0.2292 -1.3426,0.083 -1.4557,0.6936 -0.1132,0.6106 -0.9569,1.5744 -1.875,2.1418 -0.9181,0.5675 -1.6693,1.5389 -1.6693,2.1589 0,2.0084 -17.9087,17.7773 -28.125,24.7645 -7.671,5.2464 -24.6603,14.6541 -30,16.6124 -2.4062,0.8825 -6.0625,2.3701 -8.125,3.3058 -15.7411,7.141 -62.382,14.8823 -74.375,12.3445 z m 132.2832,-57.177 c 1.0223,-1.2318 0.6887,-1.6455 -1.4094,-1.7476 -1.5118,-0.074 -2.0422,0.1382 -1.1785,0.4706 0.8637,0.3324 1.2523,1.1188 0.8637,1.7476 -1.0612,1.717 0.1927,1.3748 1.7242,-0.4706 z m -159.1582,53.5216 c -17.3719,-3.2094 -36.2084,-10.1727 -53.75,-19.8696 -12.2101,-6.7497 -14.0685,-8.0213 -26.6229,-18.2155 -9.4011,-7.6338 -10.402,-8.7733 -9.3442,-10.638 0.4086,-0.7203 0.2975,-0.9076 -0.2468,-0.4162 -1.3572,1.2252 -5.9101,-1.3543 -4.9973,-2.8312 0.4035,-0.653 0.1048,-1.1873 -0.6638,-1.1873 -0.7686,0 -0.9962,-0.6494 -0.5056,-1.4431 0.5179,-0.8381 0.3462,-1.1059 -0.4096,-0.6388 -0.7159,0.4424 -2.0684,-0.1307 -3.0057,-1.2736 -1.5245,-1.8591 -1.3748,-1.9959 1.4209,-1.2984 2.9327,0.7316 2.9792,0.6706 0.7559,-0.9914 -2.0684,-1.5461 1.7397,-1.8159 30,-2.1253 34.9688,-0.3829 38.3886,-0.2011 37.1711,1.976 -0.5092,0.9108 -0.2094,0.8786 0.8366,-0.09 1.3388,-1.2395 1.3196,-1.9102 -0.1076,-3.75 -1.4997,-1.9332 -1.3553,-1.9139 1.053,0.1408 1.535,1.3097 2.7909,1.993 2.7909,1.5185 0,-0.4745 1.125,-0.2606 2.5,0.4753 1.464,0.7835 2.5,0.8475 2.5,0.1546 0,-0.6509 0.9844,-0.995 2.1875,-0.7647 1.2032,0.2303 2.9508,0.4618 3.8838,0.5144 0.9329,0.053 1.4277,0.7988 1.0994,1.6582 -0.3839,1.0053 0.6555,1.6085 2.915,1.6917 4.4751,0.1647 11.3277,2.9701 10.5053,4.3008 -0.345,0.5582 0.5614,1.3922 2.0142,1.8534 1.6269,0.5163 3.7945,3.4454 5.6432,7.6256 2.7471,6.2116 3.0016,8.4275 3.0016,26.1266 0,10.6367 -0.4218,19.2886 -0.9375,19.2266 -0.5156,-0.062 -4.875,-0.8403 -9.6875,-1.7294 z m -85.1702,-53.7756 c -0.3942,-1.0273 -1.2295,-1.551 -1.8562,-1.1636 -1.3107,0.81 -0.2585,3.0314 1.4359,3.0314 0.6254,0 0.8145,-0.8405 0.4203,-1.8678 z m 51.096,-5.0503 c -1.094,-1.955 -1.2353,-1.957 -1.9752,-0.029 -0.4683,1.2202 -0.2874,1.7618 0.4387,1.313 0.6796,-0.42 1.2357,-0.074 1.2357,0.7684 0,0.8427 0.3328,1.1993 0.7396,0.7925 0.4068,-0.4067 0.2093,-1.687 -0.4388,-2.8451 z m -70.6313,-3.8291 c -0.411,-0.411 -0.4092,-1.6282 0,-2.7051 0.5361,-1.397 0.2771,-1.6647 -0.9043,-0.9346 -1.1254,0.6955 -1.3579,0.5416 -0.7261,-0.4807 0.7191,-1.1636 1.3594,-1.1469 2.8302,0.074 1.2255,1.0171 1.4053,1.7426 0.5059,2.0424 -0.7672,0.2557 -1.0769,0.9794 -0.6883,1.6082 0.793,1.2831 0.1247,1.5422 -1.0215,0.396 z m 4.7589,-0.4164 c -0.3956,-0.64 -0.2413,-1.459 0.3429,-1.82 0.5841,-0.361 1.062,0.1626 1.062,1.1636 0,2.1077 -0.3941,2.2918 -1.4049,0.6564 z m 266.8216,-0.086 c -1.0312,-0.6665 -1.3125,-1.2117 -0.625,-1.2117 0.6875,0 2.0938,0.5452 3.125,1.2117 1.0313,0.6665 1.3125,1.2117 0.625,1.2117 -0.6875,0 -2.0937,-0.5452 -3.125,-1.2117 z m -202.5,-1.3238 c 0,-0.728 0.5625,-0.9761 1.25,-0.5512 0.6875,0.4249 1.25,1.0206 1.25,1.3238 0,0.3031 -0.5625,0.5512 -1.25,0.5512 -0.6875,0 -1.25,-0.5957 -1.25,-1.3238 z m 1.8236,-2.5094 c -0.4532,-0.7332 -0.4864,-1.6707 -0.074,-2.0833 0.4125,-0.4126 0.7501,-0.061 0.7501,0.7819 0,0.8427 0.6494,1.1308 1.4432,0.6402 0.8941,-0.5526 1.1038,-0.3429 0.5512,0.5513 -1.1052,1.7881 -1.6205,1.8094 -2.6708,0.11 z"
         id="path4234"
         inkscape:connector-curvature="0" />
      <path
         style="fill:#1b3a8a"
         d="m 3410.6697,2373.8755 c -1.5581,-0.939 -2.1875,-2.9188 -2.1875,-6.8812 0,-4.7531 0.6823,-6.2521 4.6875,-10.2978 2.5781,-2.6043 6.9048,-8.5683 9.6148,-13.2533 2.71,-4.6851 6.1389,-9.3123 7.6198,-10.2826 4.0027,-2.6227 5.5779,-7.1697 5.5779,-16.1015 0,-8.4746 -2.043,-20.318 -3.9058,-22.6426 -0.736,-0.9184 0.592,-2.5188 3.9145,-4.7175 2.7656,-1.8302 8.6076,-6.364 12.9823,-10.0751 5.8793,-4.9876 8.3198,-6.3817 9.3565,-5.345 0.7714,0.7714 1.4025,2.0196 1.4025,2.7738 0,0.7542 2.3006,3.5949 5.1125,6.3125 2.842,2.7469 7.4872,9.6597 10.4598,15.5662 7.8791,15.6555 7.9093,15.8583 2.9874,20.0687 -6.5656,5.6164 -2.0481,4.2845 5.3905,-1.5893 l 6.6748,-5.2707 -4.1973,5.3083 c -2.3086,2.9195 -5.9648,6.2 -8.125,7.2899 -2.1603,1.0899 -9.8905,7.823 -17.1784,14.9624 -7.2879,7.1394 -13.8973,12.9807 -14.6875,12.9807 -0.7902,0 -1.4368,1.3603 -1.4368,3.0228 0,7.2884 -3.4813,9.207 -6.99,3.8522 -1.1261,-1.7187 -2.5465,-3.125 -3.1563,-3.125 -1.0405,0 -11.6475,13.6293 -12.5596,16.1383 -0.6595,1.8141 -8.9345,2.7656 -11.3566,1.3058 z m 10.3125,-3.5411 c 0,-4.7375 -7.8742,-7.5419 -10.3756,-3.6953 -1.997,3.071 1.0291,6.0423 6.1536,6.0423 3.2969,0 4.222,-0.5143 4.222,-2.347 z m 22.5,-13.278 c 0,-3.2769 -0.8133,-3.7604 -3.4798,-2.0684 -1.9745,1.2528 -0.6554,5.1934 1.7385,5.1934 1.024,0 1.7413,-1.2872 1.7413,-3.125 z m 13.7138,-40.6738 c -2.5739,-1.6278 -9.9638,-1.4911 -9.9638,0.1843 0,0.7936 1.2015,1.1114 2.8125,0.7438 1.5469,-0.353 3.9375,-0.2033 5.3125,0.3326 3.0778,1.1995 4.3499,0.3273 1.8388,-1.2607 z m -27.9383,-32.2057 c -0.7285,-5.4923 -1.7455,-6.8818 -13.9058,-19.0007 -8.5506,-8.5216 -13.1197,-14.0126 -13.1197,-15.7671 0,-1.4805 -0.8248,-4.2816 -1.8328,-6.2246 -2.0281,-3.9093 -0.2584,-6.5073 2.7385,-4.0202 2.2889,1.8997 12.4718,0.4917 15.3622,-2.1241 1.329,-1.2027 2.2411,-3.3352 2.0269,-4.7389 -0.2493,-1.6337 1.0805,-3.8428 3.695,-6.1384 4.3534,-3.8223 6.273,-9.096 5.6864,-15.622 -0.3065,-3.4088 0.1251,-4.1375 2.8564,-4.823 3.64,-0.9136 4.0271,-2.0584 1.426,-4.2171 -1.4239,-1.1818 -2.3212,-0.9568 -4.375,1.097 -3.2097,3.2097 -4.3224,3.2337 -6.4936,0.1401 -1.6277,-2.319 -2.0651,-2.35 -8.59,-0.6078 -10.1885,2.7204 -35.1005,6.8038 -41.3889,6.7842 -7.2861,-0.023 -11.1111,-1.1427 -11.1111,-3.2537 0,-1.3157 2.2009,-1.7292 9.2038,-1.7292 5.0621,0 18.3107,-1.7129 29.4414,-3.8064 l 20.2376,-3.8065 2.3066,2.8485 c 2.2089,2.7278 2.4841,2.7662 6.4961,0.9052 3.8838,-1.8015 4.3482,-1.7782 6.3645,0.3204 1.1962,1.2451 2.04,3.5332 1.875,5.0847 -0.2235,2.1011 0.4316,2.9258 2.5669,3.2316 2.0007,0.2866 2.6841,1.0431 2.2619,2.5041 -0.3328,1.1513 -1.2305,4.6247 -1.995,7.7184 -0.7645,3.0938 -3.4487,9.7503 -5.9649,14.7924 l -4.5748,9.1674 5.2035,4.3223 c 2.862,2.3774 7.7772,8.5614 10.9226,13.7424 l 5.719,9.4199 -8.4696,8.4526 c -4.6583,4.6489 -9.6651,9.0874 -11.1263,9.8633 -2.4968,1.326 -2.704,1.0543 -3.4428,-4.5148 z m -26.6253,-47.081 c -2.6878,-1.4131 -2.675,-1.4514 0.9375,-2.815 2.0334,-0.7675 3.6623,-0.8746 3.6623,-0.2409 0,0.6278 -0.9844,1.1809 -2.1875,1.2293 -1.9074,0.077 -1.878,0.209 0.2295,1.0343 1.3294,0.5206 1.8919,1.2342 1.25,1.5857 -0.6418,0.3516 -2.3932,0 -3.8918,-0.7934 z m 5.8498,0.6093 c 0,-0.6744 1.5469,-1.5957 3.4375,-2.0473 1.8906,-0.4517 4.1406,-1.375 5,-2.0519 1.0615,-0.8361 1.5625,-0.7604 1.5625,0.2361 0,0.8068 -1.9507,2.2819 -4.3349,3.2781 -5.1292,2.1431 -5.6651,2.1985 -5.6651,0.585 z m -13.0196,-8.54 c -2.6966,-5.9801 -1.9892,-10.3386 2.3886,-14.7164 4.5597,-4.5597 8.6186,-3.8854 15.1049,2.5092 3.3589,3.3113 5.0685,5.8587 4.2652,6.3552 -0.7374,0.4557 -1.0235,1.8284 -0.6356,3.0504 0.581,1.8306 -0.6392,2.5991 -6.9281,4.3637 -4.1983,1.178 -8.394,1.8499 -9.3236,1.4932 -0.9297,-0.3568 -1.8907,-0.047 -2.1357,0.6875 -0.2449,0.7349 -1.476,-0.9493 -2.7357,-3.7428 z m 14.9571,3.6047 c 0.6531,-0.6389 2.875,-1.5147 4.9375,-1.9464 l 3.75,-0.7848 -3.125,1.9021 c -3.4744,2.1147 -7.4885,2.713 -5.5625,0.829 z m 34.3125,-32.2234 c 0,-0.7927 -1.0725,-1.621 -2.3834,-1.8407 -2.2333,-0.3743 -2.2076,-0.5305 0.4086,-2.482 4.0222,-3.0003 6.7552,-1.0611 4.016,2.8497 -1.1227,1.6028 -2.0412,2.2656 -2.0412,1.473 z m -11.1513,-6.0943 c 0.06,-1.4562 0.3562,-1.7523 0.7552,-0.7552 0.3611,0.9024 0.3167,1.9805 -0.099,2.3959 -0.4154,0.4153 -0.7108,-0.323 -0.6566,-1.6407 z"
         id="path4232"
         inkscape:connector-curvature="0" />
    </g>
  </g>
</svg>
